<svg class="onion" width="97" height="112" viewBox="0 0 97 112" fill="none" xmlns="http://www.w3.org/2000/svg">
                <g opacity="0.15">
                <path d="M83.22 51.8009C82.326 45.6056 79.0754 40.3477 74.4339 35.6169C73.3732 34.5221 72.2844 33.8952 71.2237 32.8004C65.6714 28.4702 58.707 26.3518 51.6778 26.8551C50.1798 27.0062 48.7155 26.3475 47.8367 25.1272C47.359 24.4893 47.4918 23.8405 47.9776 22.7914C48.1103 22.1426 48.2816 21.6376 47.8421 21.1423C47.4026 20.6469 46.8402 21.4102 46.3365 21.239L46.7636 21.1245" stroke="black" stroke-width="0.600071" stroke-linecap="round" stroke-linejoin="round"/>
                <path d="M52.2471 97.6444C54.0411 97.4697 55.682 96.7235 57.2566 96.3013" stroke="black" stroke-width="0.600071" stroke-linecap="round"/>
                <path d="M47.2821 21.9051L47.4255 21.8667C46.6465 20.9257 46.1763 19.768 46.0786 18.5506C46.715 15.775 47.6382 12.9232 46.3655 9.89344C46.2889 9.60771 46.8612 9.45427 46.9278 9.12949L46.7744 8.55741L45.1973 8.98027C45.083 9.17618 45.0363 9.40416 45.0645 9.62906C44.7018 9.42005 44.625 9.1337 44.7963 8.62869C44.7082 8.41985 44.5538 8.24579 44.3568 8.13333C43.355 8.40193 41.7982 7.74704 41.208 8.97756C40.7891 9.70308 41.3435 10.6267 41.249 11.4181C41.0546 12.0831 40.9809 12.7774 41.0315 13.4681C40.6609 14.9467 39.8605 16.5399 39.4898 18.0185C39.1192 19.497 40.333 21.1633 39.6762 22.7187C39.2956 23.5867 37.7209 24.0089 37.5214 24.9819C37.4268 25.7733 38.5918 26.6866 38.4973 27.478C37.7994 29.6109 36.3982 31.4449 34.5225 32.6807C29.725 35.9587 24.3595 37.7036 20.2346 42.334C18.3658 44.5205 17.1206 47.3058 15.5467 50.0259C14.5008 52.1756 13.7181 54.4432 13.2153 56.7797C12.6192 61.9959 13.7511 67.3614 15.054 72.2207" stroke="black" stroke-width="0.600071" stroke-linecap="round" stroke-linejoin="round"/>
                <path d="M81.5342 45.5111L81.4958 45.3679C82.0224 46.7588 82.7963 47.9305 83.3222 49.3189C84.0022 51.2818 84.6538 53.7121 85.4739 55.6367C87.4048 59.7812 88.0574 64.4064 87.3486 68.9242C86.4695 74.219 85.0819 79.3438 82.175 83.9513" stroke="black" stroke-width="0.600071" stroke-linecap="round" stroke-linejoin="round"/>
                <path d="M14.6527 71.8704L14.9388 71.7936C15.1506 72.2961 15.2925 72.8251 15.3604 73.3661C15.4371 73.6518 15.6182 73.7541 15.6954 74.0423C15.9154 74.2896 15.8488 74.6144 15.887 74.7569C16.337 75.862 17.1393 76.5664 17.5893 77.6715C17.9626 78.4909 18.7265 79.0521 19.2426 79.8331C19.7235 80.7457 20.2666 81.624 20.8683 82.462C21.3407 83.1293 21.8672 83.7567 22.4424 84.338C22.7001 84.726 23.0995 85.0813 23.3597 85.4712C23.6199 85.8612 24.1236 86.0324 24.3819 86.4229C24.8597 87.0608 25.586 87.4793 26.0637 88.1172C26.7208 88.8605 27.4871 89.4211 28.1466 90.1637C28.8467 90.807 29.6154 91.3715 30.4389 91.8471C30.8016 92.0561 31.2689 92.0817 31.6323 92.2932C32.1359 92.4644 32.4728 93.1401 32.979 93.3113C33.9142 93.8082 34.896 94.2121 35.9103 94.5171L39.0616 95.9702C39.4244 96.1792 39.6421 96.4278 39.9689 96.493C40.4726 96.6642 40.9423 96.6891 41.4484 96.8623C41.8968 97.0601 42.3226 97.3054 42.7184 97.5941C43.231 97.7292 43.7115 97.9649 44.1318 98.2874C45.0391 98.8102 45.9365 98.723 46.7672 98.9601C47.1266 99.0796 47.5047 99.133 47.8833 99.1179C48.1694 99.0412 48.2337 98.7177 48.4846 98.4996C48.7354 98.2815 49.2003 98.3077 49.4864 98.231C50.6074 97.8285 51.7741 97.5672 52.9597 97.4532C53.8571 97.3661 55.7079 96.2592 56.4712 96.818" stroke="black" stroke-width="0.600071" stroke-linecap="round" stroke-linejoin="round"/>
                <path d="M83.7823 51.037L83.21 51.1904" stroke="black" stroke-width="0.600071" stroke-linecap="round"/>
                <path d="M83.7823 51.037C83.2915 50.8361 82.7352 50.8723 82.2743 51.1351C82.6371 51.3441 82.7521 51.773 83.008 52.1641C87.2505 60.5263 84.5757 70.5897 80.5369 78.4145" stroke="black" stroke-width="0.600071" stroke-linecap="round" stroke-linejoin="round"/>
                <path d="M60.7583 95.0561L60.8349 95.3419C60.0923 95.6176 59.3255 95.8232 58.5446 95.9559L57.5428 96.2245C57.0884 96.1557 56.625 96.1759 56.1782 96.2841" stroke="black" stroke-width="0.600071" stroke-linecap="round" stroke-linejoin="round"/>
                <path d="M61.121 95.2651C61.3688 95.0452 61.7317 95.2548 61.951 95.4996C62.4624 94.6167 63.0629 93.7883 63.7432 93.0274C64.1803 92.5703 64.7149 92.2174 65.3072 91.9948L65.8411 91.6982C66.1099 91.4542 66.4243 91.2658 66.7663 91.1439C68.7217 89.8536 71.0014 88.6292 72.699 86.9483C73.3843 86.1959 74.1169 85.4877 74.8922 84.8282C75.7028 84.1257 76.415 83.3173 77.0095 82.4249C77.7152 81.6225 78.382 80.6777 79.0878 79.8759C79.2973 79.5134 79.6891 79.2576 79.8596 78.7495C79.978 78.1565 80.254 77.6061 80.6586 77.1561" stroke="black" stroke-width="0.600071" stroke-linecap="round" stroke-linejoin="round"/>
                <path d="M62.2768 95.5685C62.7822 94.5548 63.6992 93.8066 64.7945 93.5142C65.3667 93.3608 65.7196 92.9599 66.2925 92.8063L67.8672 92.3841C68.4088 92.3156 68.9386 92.1735 69.4419 91.9619C69.728 91.8852 69.6514 91.5995 69.7924 91.5617L70.6514 91.3314C71.7676 91.1088 72.8681 90.8137 73.946 90.448C74.4114 90.1858 74.8409 89.8645 75.2239 89.4922C75.6429 89.2407 76.0248 88.9321 76.3586 88.5754C77.141 88.0594 77.8844 87.4003 78.6668 86.8843C79.3124 86.3084 79.9147 85.686 80.4688 85.0219C80.9929 84.1154 82.0614 83.5226 82.0792 82.4449" stroke="black" stroke-width="0.600071" stroke-linecap="round" stroke-linejoin="round"/>
                <path d="M83.2997 82.424L83.5859 82.3472C83.8159 83.2051 83.1101 84.0068 82.5094 84.6276C82.085 85.2868 81.5753 85.8872 80.9936 86.4132C80.3923 87.0316 79.7157 87.3691 79.1148 87.9893C78.6009 88.6145 77.9432 89.1063 77.1979 89.4227C76.4822 89.6146 75.9865 90.0537 75.1275 90.2841L74.1263 90.5525C73.6854 90.6823 73.274 90.8966 72.915 91.1835L71.9126 91.4523C71.4717 91.5821 71.0602 91.7964 70.7013 92.0833C69.9587 92.3591 69.1919 92.5647 68.4109 92.6974" stroke="black" stroke-width="0.600071" stroke-linecap="round" stroke-linejoin="round"/>
                <path d="M83.6446 83.71C84.4652 83.3365 84.721 81.4296 84.8156 80.6383C85.0813 79.3413 85.6721 78.1106 85.976 76.9562C86.2908 75.6901 86.5097 74.4022 86.6308 73.1034C86.5826 72.3503 86.8965 71.8064 86.9917 71.0149C87.052 70.2625 86.9537 69.506 86.703 68.7942" stroke="black" stroke-width="0.600071" stroke-linecap="round" stroke-linejoin="round"/>
                <path d="M82.9773 84.6557C82.4889 83.4074 83.5093 82.0615 83.8516 81.0503C83.9667 80.7856 84.0459 80.5068 84.087 80.2212C84.1965 79.8491 84.3606 79.4952 84.5739 79.1711L85.0888 77.6526C85.5726 76.4577 85.9606 75.2265 86.2492 73.9705C86.5149 72.6735 86.6378 71.4148 86.9041 70.1177C86.9331 69.6528 87.3898 69.068 87.4182 68.6006C87.4849 68.2765 87.2648 68.0286 87.2933 67.5618C87.2167 67.2761 87.4261 66.913 87.4904 66.5895C87.3612 65.1584 87.0848 63.7444 86.6658 62.37C86.4742 61.6553 86.6069 61.0065 86.3771 60.1493L84.6904 53.8583" stroke="black" stroke-width="0.600071" stroke-linecap="round" stroke-linejoin="round"/>
                <path d="M59.0692 95.0492C58.8392 94.1914 58.7806 92.8286 58.3026 92.1901C58.0985 91.8391 57.666 91.6931 57.2902 91.8483C56.5746 92.0402 56.6889 92.4667 56.6994 93.079C56.234 93.0504 56.3644 92.4028 56.2878 92.1171C56.143 91.6829 55.9299 91.2745 55.6567 90.9071C55.4367 90.6598 55.0762 90.4495 54.9996 90.1638C54.687 89.7052 54.4482 89.2005 54.2919 88.6681C53.5762 88.86 54.2864 90.355 53.6449 90.8333C53.3872 90.4453 53.4149 89.9755 53.1566 89.585C53.08 89.2993 52.6404 88.8039 52.4995 88.8417C51.7072 88.7479 51.6609 90.2923 51.4898 90.7979C51.4608 91.2628 51.3007 92.3806 50.5851 92.5725C50.2989 92.6492 49.8594 92.1539 49.5067 92.5554C49.4017 92.737 49.6601 93.1274 49.5549 93.3084C49.5933 93.4516 49.4881 93.6326 49.5649 93.919C49.6898 94.9578 50.3877 95.8436 50.0454 96.8548C49.8483 97.8272 48.834 97.4859 48.3173 96.705C47.8006 95.924 47.0367 95.3628 46.5205 94.5817C46.0528 93.8126 45.7225 92.968 45.5446 92.0856C45.9451 92.4354 46.0989 93.0093 46.5001 93.3615C47.1773 93.0264 46.4672 91.5314 46.314 90.9599C46.1996 90.5334 46.4085 90.1685 46.3319 89.8828C46.3609 89.4179 46.1019 89.025 46.1303 88.5577C46.082 87.8046 45.7471 87.1284 46.1659 86.4029C46.3002 86.0894 46.6126 85.8896 46.9537 85.899C47.2948 85.9085 47.5954 86.1252 47.7116 86.4456C47.9594 86.2257 48.1307 85.7207 48.2356 85.5391C48.5093 84.8525 48.5093 84.8525 49.0841 84.6984C49.9676 84.5201 50.8136 84.1897 51.5839 83.7219C52.5091 83.1675 52.9768 83.1949 54.0936 83.3552C54.4571 83.3694 54.8086 83.4881 55.106 83.697C55.7927 83.97 55.5065 84.0468 55.8397 84.726C56.2028 85.4719 56.6485 86.1747 57.1686 86.8212C57.6847 87.6023 57.9147 88.4601 58.3924 89.0981C58.9112 89.6732 59.3021 90.3515 59.5395 91.0885C59.6929 91.6606 60.1527 93.3756 59.3987 93.4243" stroke="black" stroke-width="0.600071" stroke-linecap="round" stroke-linejoin="round"/>
                <path d="M59.783 92.5623C60.0798 93.0959 59.7269 93.4968 59.7009 93.9635C59.7435 94.4086 59.8601 94.8435 60.0459 95.2502C59.6725 94.4309 60.5217 93.5906 60.9406 92.8651C61.296 91.8855 61.5915 90.8854 61.8255 89.8701C62.1678 88.8589 62.1479 87.6384 62.452 86.4846C62.7144 85.4499 62.8416 84.3856 62.8306 83.3184C62.8112 82.7392 62.8618 82.1598 62.9812 81.5926C63.038 81.3421 63.0213 81.0806 62.933 80.8395C62.9998 80.5153 63.1048 80.3363 63.1685 80.0103C63.4342 78.7134 63.2325 77.3882 63.3172 75.9869C63.2296 74.8989 62.9942 73.828 62.6174 72.8036L61.5816 68.9404C61.3954 67.865 61.0635 66.8199 60.5951 65.834C60.2983 65.3004 60.0407 64.9103 59.7464 64.376C59.4521 63.8418 58.9059 63.5291 58.6091 62.9955C58.0736 61.9881 57.4565 61.0262 56.7642 60.1192C56.3246 59.6238 55.9237 59.2723 55.4835 58.7771C55.0979 58.2401 54.7867 57.6536 54.5582 57.0334C53.9655 55.9666 53.1626 55.2624 52.5699 54.1955C52.2731 53.6619 52.1965 53.3762 51.9388 52.9855C51.4992 52.4902 51.2435 52.0997 50.8015 51.605C50.0182 50.8249 49.2826 49.9985 48.5986 49.1303C48.0911 48.3224 47.5258 47.5523 46.907 46.8261C45.9897 45.6928 44.8268 47.0775 44.6272 48.0505C44.4991 48.6338 44.4011 49.2233 44.3337 49.8166C44.2557 50.3632 44.1447 50.9046 44.0012 51.4378C43.4977 53.5646 42.8125 55.5872 42.4516 57.6757C42.471 58.2549 42.4204 58.8344 42.301 59.4016C42.2598 59.6872 42.1806 59.9661 42.0655 60.2307C42.0231 60.5404 42.0044 60.8528 42.0094 61.1653C41.9038 61.6402 41.8279 62.1211 41.7821 62.6054C41.7921 63.2159 41.6232 63.7203 41.6314 64.3313C41.7562 65.3701 41.8434 66.2662 41.9709 67.305C41.9809 67.9155 42.1341 68.4869 42.1063 68.9541C42.0786 69.4213 41.7581 69.9676 41.7297 70.4324C41.5326 71.4047 41.5506 72.6256 41.3511 73.5986C41.2527 74.8291 41.2253 76.0642 41.2691 77.2978C41.2401 77.7627 41.3558 78.194 41.328 78.6612C41.2869 78.9468 41.2077 79.2257 41.0925 79.4903C41.0257 79.8145 41.2459 80.0624 41.2841 80.205C41.3607 80.4907 41.1123 80.7082 41.1896 80.9963L41.3812 81.711C41.3327 82.3692 41.3566 83.0307 41.4523 83.6837C41.6615 84.7499 41.9432 85.8007 42.2955 86.8285L43.2153 90.2592C43.5533 91.3143 44.0292 92.3201 44.6308 93.2506C45.1574 94.6415 46.8571 95.2587 47.9837 96.0289C48.3875 96.3661 48.8261 96.6594 49.2921 96.9038C49.8335 97.2158 50.1221 97.1384 50.8377 96.9465" stroke="black" stroke-width="0.600071" stroke-linecap="round" stroke-linejoin="round"/>
                <path d="M59.0158 89.7009L59.0924 89.9867C59.4811 89.729 59.596 87.8599 59.7671 87.3543C59.8865 86.7871 59.9371 86.2076 59.9178 85.6284C60.0852 84.9584 60.1584 84.2684 60.1352 83.5783L59.9436 82.8637C60.0004 82.6132 59.9837 82.3517 59.8954 82.1106L59.7038 81.396C59.6272 81.1102 59.8756 80.8928 59.7983 80.6046C59.5637 79.443 59.2564 78.2972 58.8785 77.174L58.0353 74.0291C57.7287 72.8856 56.8882 72.0386 56.3331 71.1145C56.0601 70.6033 55.7264 70.1269 55.3392 69.6955C54.8997 69.2002 54.3553 68.887 53.9158 68.3917C53.1822 67.3626 52.587 66.2965 51.8509 65.2681C51.5073 64.82 51.2222 64.3301 51.0022 63.8102C50.7054 63.2765 50.8773 62.7713 50.5806 62.2377C50.3229 61.8497 50.169 61.2758 49.8085 61.0655C49.0829 60.6469 48.6634 61.3725 48.3872 62.0598C48.2069 62.6519 48.0609 63.2538 47.9498 63.8625C47.9598 64.4731 47.6457 65.0163 47.6557 65.6269C47.5737 67.0281 47.6683 68.5347 47.441 69.9749C47.1495 72.3471 47.0213 74.7365 47.057 77.126C47.0486 77.6142 46.9721 78.0989 46.8297 78.5662C46.697 79.215 46.8118 79.6433 46.6791 80.2921C46.7557 80.5778 46.4695 80.6545 46.5073 80.7952C46.5839 81.081 46.804 81.3289 46.7373 81.653C46.6628 82.1162 46.6353 82.5857 46.6552 83.0543C46.6275 83.6076 46.673 84.1621 46.7906 84.7034L47.2888 86.5616" stroke="black" stroke-width="0.600071" stroke-linecap="round" stroke-linejoin="round"/>
                <path d="M60.071 94.7806C60.8251 94.7319 61.6636 93.2813 62.0164 92.8798C62.4362 92.4976 62.7819 92.0414 63.0361 91.5341C63.3162 91.0084 63.6447 90.51 64.0174 90.0452C64.4899 89.5056 64.7914 88.8382 64.8838 88.1275C64.9821 87.6716 65.119 87.2249 65.2928 86.7921C65.6055 86.2511 65.7402 85.5998 65.9496 85.2367C66.2623 84.6958 66.7598 84.2535 66.8926 83.6047C67.2111 82.5458 67.4336 81.4604 67.5573 80.3618C67.6499 79.0351 67.6517 77.7037 67.5627 76.3769C67.5449 75.2369 67.5979 74.0969 67.7212 72.9634C67.7112 72.3529 68.0635 71.9521 68.0537 71.3422C68.0433 70.6426 67.9593 69.9461 67.8032 69.2641C67.075 66.5482 66.4902 63.7937 65.6186 61.1162C65.312 59.9727 64.4332 58.9825 63.9832 57.8774C63.3624 56.7714 62.6221 55.7368 61.7754 54.7921C60.9961 53.8295 60.1398 52.9318 59.2148 52.1077C58.2692 51.4418 57.2185 50.9575 56.2729 50.2915C55.6794 49.91 55.0325 49.6187 54.3532 49.427C53.6666 49.154 53.1876 48.5138 52.6437 48.1999C51.425 47.4027 50.3003 46.4707 49.2908 45.4216C48.6337 44.6783 48.0102 44.0795 47.3896 43.4799C46.6791 42.7179 45.9229 41.9997 45.1251 41.3292C44.7624 41.1202 44.6474 40.6913 44.1795 40.6633C43.6379 40.7319 43.1081 40.8739 42.6048 41.0855C41.7443 41.5797 41.0353 42.2996 40.5549 43.1671C40.0688 44.1521 39.6767 45.1805 39.3839 46.2389C38.9749 47.5743 38.4224 48.9482 37.8706 50.3218C37.776 50.9623 37.5802 51.5837 37.2904 52.1629C36.9592 52.7824 36.6698 53.4232 36.4243 54.0813L35.9102 55.5983C35.6567 56.3993 35.466 57.2188 35.3399 58.0492C34.9112 59.0977 34.6389 60.2033 34.5318 61.3306C34.4113 62.5886 33.8187 63.8198 33.8769 65.1834C33.8869 65.7939 33.859 66.2605 33.8714 66.8704C33.7741 67.3308 33.7464 67.8031 33.7893 68.2716C33.8659 68.5573 34.0861 68.8052 34.0193 69.1294C34.0959 69.4151 33.9903 69.5943 33.9248 69.9207C33.973 70.6738 34.1646 71.3885 34.2135 72.1414C34.2235 72.7519 33.9094 73.2952 33.9194 73.9057C33.9294 74.5162 34.0443 74.9445 34.0549 75.5549C34.0655 76.1652 34.1797 76.5937 34.1903 77.204C34.1419 77.8623 34.1657 78.5238 34.2615 79.1767L34.4531 79.8913C34.5297 80.1771 34.424 80.3563 34.5013 80.6444C34.5693 81.1854 34.7111 81.7145 34.9229 82.2169C35.2097 83.4752 35.64 84.6963 36.2055 85.8565C36.8489 87.0557 37.6144 88.1853 38.4898 89.2275C39.5121 90.1792 40.4293 91.3125 41.4898 92.4067C42.5141 93.5136 43.6122 94.5501 44.7765 95.509C45.357 95.9666 45.7604 96.3175 46.3433 96.7744C46.7438 97.1241 47.6801 97.182 47.8335 97.7541" stroke="black" stroke-width="0.600071" stroke-linecap="round" stroke-linejoin="round"/>
                <path d="M48.2572 97.6418C47.9711 97.7185 47.7535 97.4706 47.4272 97.4072C46.9235 97.236 46.6349 97.3133 46.272 97.1037C45.4462 96.801 44.6367 96.4554 43.8469 96.0685C41.8506 94.9182 39.397 94.3503 37.6491 92.98L33.6083 89.9264C33.024 89.5876 32.4956 89.1608 32.0415 88.661L30.1788 86.8624C29.3461 86.0059 28.5854 85.0824 27.9043 84.1013C27.0088 82.9891 26.3512 81.7052 25.9721 80.3289L25.0518 76.8965C24.7909 75.7204 24.6742 74.5169 24.7043 73.3124C24.732 72.7591 24.6864 72.2046 24.5688 71.6633C24.5455 70.8821 24.5926 70.1003 24.7096 69.3275C24.6503 68.6098 24.6622 67.8881 24.7453 67.1727C24.8015 66.2382 25.0394 65.4084 25.0955 64.4738C25.1588 63.0121 25.3878 61.5622 25.7783 60.1518C25.911 59.503 26.2257 58.9596 26.3585 58.3108C26.6322 57.6242 26.8725 56.7938 27.1482 56.1073C27.2532 55.9257 27.4987 55.7071 27.6061 55.5274C27.8157 55.165 27.8798 54.8408 28.0918 54.4777C28.3841 53.9951 28.7259 53.5441 29.1115 53.132C30.0651 52.1104 31.0569 51.2312 31.9716 50.0672C32.3468 49.5086 32.7712 48.9846 33.2397 48.5014C33.6516 48.0664 33.9838 47.5624 34.221 47.0126C34.5337 46.4716 35.1746 45.9909 35.4507 45.3037C35.8696 44.5782 36.432 43.8148 36.7466 43.2707C37.2706 42.3642 37.4701 41.3913 37.9942 40.4847C38.2134 39.9507 38.373 39.3941 38.47 38.8252C38.7156 38.1673 39.005 37.5267 39.3363 36.9074C39.717 36.0393 40.126 34.7039 40.9467 34.3304C42.0152 33.7376 43.132 33.898 44.287 34.2008C44.7907 34.372 45.4032 34.3587 45.805 34.7133C46.3019 35.0884 46.7344 35.5417 47.0856 36.0554C47.9261 36.9024 48.5194 37.969 49.3601 38.8166C50.2876 39.7493 51.2869 40.608 52.3487 41.3849C53.0266 42.0568 53.8454 42.5699 54.7461 42.8874C55.4327 43.1604 56.0829 43.295 56.7702 43.5704C58.9748 44.4783 61.0492 45.6738 62.9394 47.1256C63.4479 47.4353 63.9812 47.7023 64.5339 47.9239C65.0753 48.2358 65.4796 48.5898 66.0241 48.9035C66.888 49.4964 67.6523 50.2222 68.2886 51.0541C69.0804 52.0415 69.8174 53.0715 70.4963 54.1395C70.7931 54.6731 70.6979 55.4646 70.9945 55.9976C71.3295 56.6738 71.6256 57.2076 71.9582 57.8845C72.446 58.9003 73.0153 59.8749 73.6604 60.799C73.9572 61.3327 73.7852 61.8379 73.7959 62.4482C73.8898 63.0847 74.057 63.7082 74.2941 64.3064C74.4776 65.2031 74.5172 66.1233 74.4116 67.0326C74.3574 68.3393 74.1374 69.6339 73.7567 70.8855C73.3789 71.9737 73.0615 73.082 72.8059 74.2051C72.6071 75.6371 72.2069 77.034 71.6171 78.3545C71.1314 79.4042 71.0085 80.6629 70.5229 81.7126C70.2772 82.3704 69.9878 83.0111 69.6565 83.6303C69.2376 84.3559 68.9997 85.1857 68.58 85.9107C68.122 86.5444 67.6152 87.1414 67.0642 87.6963C66.5019 88.4603 66.264 89.2901 65.7016 90.0534C65.4796 90.4179 65.2068 90.7489 64.8914 91.0367C64.4335 91.6166 64.1858 91.8391 64.3774 92.5537" stroke="black" stroke-width="0.600071" stroke-linecap="round" stroke-linejoin="round"/>
                <path d="M64.7352 92.1516C65.8729 91.197 66.9258 90.1458 67.882 89.0098C69.0833 87.7683 70.6475 86.7363 71.6295 85.2473C72.0484 84.5218 72.6492 83.9016 73.0687 83.1759C73.4882 82.4503 73.4394 81.6973 73.8966 81.115C74.4801 80.5471 74.9779 79.8976 75.3743 79.1868C75.7196 78.6186 76.0221 78.0254 76.279 77.4122C76.5607 76.802 76.8024 76.1742 77.0025 75.5327C77.2923 74.9535 77.4881 74.3321 77.5827 73.6917C77.7155 73.0429 77.7416 72.5768 77.8768 71.9274C78.0397 71.1455 78.1348 70.3512 78.161 69.5531C78.5317 68.0746 78.9025 66.5966 79.1298 65.1564C79.2625 64.5076 79.7206 63.9257 79.6716 63.1722C79.7006 62.7073 79.4416 62.3144 79.47 61.8471C79.4375 61.2515 79.3312 60.6623 79.1534 60.093L77.9268 55.5182C77.8328 54.8817 77.6657 54.2582 77.4286 53.6601C77.3522 53.3965 77.1824 53.1697 76.9509 53.0221C76.7206 52.6357 76.5556 52.2139 76.4625 51.7739C75.8314 50.5639 75.057 49.3929 74.4259 48.1829C73.6156 46.8682 72.1996 46.1749 71.1774 45.2232C70.2261 44.1982 69.2011 43.244 68.1106 42.3682C66.8022 41.4933 65.6366 40.5801 64.3282 39.7051L62.3319 38.5549C61.6526 38.3633 61.0057 38.0719 60.4122 37.6904C59.8318 37.2328 59.3232 37.0629 58.9221 36.7107C58.3322 36.273 57.7131 35.8758 57.0692 35.522C56.5093 35.2266 55.9284 34.9727 55.3313 34.7622C55.0067 34.6958 54.9685 34.5532 54.7899 34.4502L53.8165 34.2541C52.771 33.9214 51.7445 33.5316 50.7418 33.0867C50.2004 32.7748 49.6912 32.6024 49.1473 32.2885C48.7845 32.0795 48.2782 31.9083 47.9155 31.6993C47.5527 31.4903 47.1516 31.1381 46.7882 30.9292C46.3584 30.7621 45.9728 30.4986 45.661 30.1592C44.8587 29.4548 44.1226 28.4264 43.0058 28.2661C41.8507 27.9626 40.6771 28.737 40.0105 29.6824L38.4353 32.3982C38.2258 32.7606 38.3026 33.047 38.0547 33.2663C37.8514 33.5601 37.6146 33.8294 37.349 34.0687C36.8911 34.6486 36.2527 35.1286 35.7948 35.7111C34.9464 36.5518 33.9161 37.2871 33.0676 38.1278C32.7172 38.528 32.1802 38.8229 31.8279 39.2262C31.4014 39.5558 31.0422 39.9643 30.77 40.4293C30.0644 41.2317 28.9964 41.8243 28.2906 42.6261C27.337 43.6478 26.747 44.8789 25.8317 46.0431C25.3583 46.6526 24.9704 47.3237 24.6786 48.0378C24.4049 48.7244 24.0878 49.2685 23.8122 49.9555C23.2141 51.4874 22.712 53.055 22.309 54.649C21.5576 56.9957 21.2727 59.3675 20.7008 61.8221C20.5419 62.937 20.34 63.9106 20.1794 65.0266C20.0595 65.3857 20.0057 65.7634 20.0206 66.1415C19.9915 66.6064 20.1072 67.0377 20.1176 67.6475C20.0764 68.201 20.1221 68.7574 20.2531 69.2966L20.5981 70.5834C20.6599 71.575 20.87 72.5516 21.2213 73.481L21.9111 76.0538C22.0407 76.4943 22.2551 76.9053 22.5422 77.2638L22.8876 78.5517C23.1773 79.4199 23.6033 80.2365 24.1496 80.9711C24.6806 81.873 25.2714 82.7385 25.918 83.5616C26.4992 84.4507 27.1373 85.3014 27.8283 86.1083C28.5585 87.0802 29.3672 87.9908 30.2462 88.831C30.7618 89.2185 31.2385 89.6552 31.6696 90.1348C31.9316 90.5995 32.2528 91.0283 32.6251 91.4106C32.8068 91.5154 32.9496 91.4771 33.1287 91.5819L33.7858 92.3252C34.1881 92.8324 34.6685 93.2725 35.2092 93.629C36.2429 94.1442 37.2276 94.7521 38.1511 95.4452C38.7059 95.7918 39.3403 95.9909 39.994 96.0234C40.6688 96.3144 41.3229 96.6508 41.9519 97.0305C42.8781 97.4808 43.8473 97.837 44.845 98.0937L46.3629 98.6062C46.8666 98.7774 47.2702 99.129 47.8425 98.9755" stroke="black" stroke-width="0.600071" stroke-linecap="round" stroke-linejoin="round"/>
                <path d="M43.5353 25.6675C43.8802 26.9542 44.4346 27.8778 45.9147 28.247C47.3949 28.6162 48.6928 28.8814 50.2112 29.3931C51.548 29.8007 52.6364 30.4283 54.0116 30.9791C55.2049 31.4251 56.5035 31.6902 57.7351 32.2788C58.0596 32.3452 58.0979 32.4878 58.4608 32.6974C58.8598 32.7356 59.2499 32.8381 59.616 33.0009C60.2745 33.2459 60.9158 33.5348 61.5356 33.8654C62.8702 34.5115 64.2485 35.0635 65.6603 35.5173C68.2673 36.6573 69.8161 38.9998 71.572 40.9805C71.792 41.2277 71.8688 41.5141 72.0498 41.6184C72.3075 42.0064 72.4503 41.9681 72.8137 42.1796C73.2163 42.6199 73.5959 43.0807 73.9509 43.5601C74.2025 43.9786 74.5112 44.3601 74.8682 44.6934C75.2467 45.1844 75.676 45.6343 76.1488 46.0355C76.7032 46.9592 77.2193 47.7403 77.7744 48.6644C78.0712 49.198 78.186 49.6263 78.4822 50.1601C78.6567 50.3486 78.773 50.5834 78.8172 50.8363L79.0854 51.8367C80.1942 53.6846 80.4169 56.2298 80.9917 58.3737C81.6816 60.9466 80.2529 63.6283 80.151 66.1091C80.097 67.1492 79.9089 68.1781 79.5913 69.1704C79.1822 70.5058 78.372 71.489 78.2875 72.8909C78.2295 73.9989 78.0054 75.092 77.6228 76.1338L76.6798 77.7658C76.4794 78.3666 76.2244 78.9478 75.9179 79.5021C75.2888 80.5903 74.5836 81.3919 74.098 82.4416C73.6641 83.4396 73.0861 84.3688 72.3825 85.1996C72.1729 85.562 72.1088 85.8861 71.8968 86.2492C71.5704 86.4819 71.2839 86.7658 71.0484 87.0899C70.313 87.8113 69.652 88.6046 69.0753 89.4579" stroke="black" stroke-width="0.600071" stroke-linecap="round" stroke-linejoin="round"/>
                <path d="M38.8984 27.83C39.1952 28.3636 38.8423 28.7645 38.6711 29.2701C38.479 29.9486 38.187 30.5949 37.8048 31.1879C37.4332 31.7833 37.0221 32.3532 36.5743 32.8938C36.2238 33.294 35.9069 33.8387 35.5546 34.2394C35.1379 34.6692 34.6739 35.0506 34.1715 35.3763C33.7226 35.7197 33.2319 36.0049 32.7112 36.2249C31.4998 36.856 30.5463 37.8777 29.3345 38.5095C27.0687 39.6702 24.9861 41.1578 23.1539 42.9244C21.4584 44.6106 19.3987 46.0823 17.7808 48.0481C17.1133 48.9931 16.991 50.2516 16.8299 51.3677C16.6533 51.903 16.4337 52.4231 16.1731 52.9231C15.9868 53.6063 15.8659 54.3056 15.8123 55.0116C15.5961 56.1654 15.4476 57.3307 15.3675 58.5018C15.3385 58.9667 15.2087 59.6166 15.2168 60.2276L15.4083 60.9417C15.4849 61.2274 15.2755 61.5905 15.2112 61.914C15.1835 62.4673 15.2291 63.0218 15.3467 63.5631C15.4548 64.0094 15.4748 64.4725 15.4055 64.9266L15.8271 66.499C16.0187 67.2137 15.8476 67.7193 16.0392 68.4339C16.1926 69.006 16.0213 69.511 16.1746 70.0831L16.5962 71.6555C16.8577 72.8191 17.2628 73.9457 17.8022 75.0094C18.3949 76.0763 19.131 77.1046 19.7238 78.1715C20.3165 79.2383 20.976 79.9809 21.5688 81.0477C22.0855 82.1721 22.7303 83.2331 23.4904 84.2098C24.1474 84.9531 24.9521 85.6568 25.6115 86.3988C26.3444 87.2554 27.1261 88.0691 27.9528 88.8358C28.8278 89.9235 29.905 90.832 31.1252 91.5116C31.6666 91.8236 32.3569 92.1008 33.0831 92.5187C33.4458 92.7277 33.6635 92.9763 34.0287 93.1846C34.3939 93.393 34.7926 93.7458 35.1559 93.9547C35.6974 94.2666 36.4543 94.2191 36.8938 94.7144L37.1516 95.1025C37.3333 95.2072 37.3715 95.3498 37.693 95.4144C38.0589 95.5695 38.2828 95.9426 38.2473 96.3381" stroke="black" stroke-width="0.600071" stroke-linecap="round" stroke-linejoin="round"/>
                <path d="M43.3357 26.6405C44.1564 26.267 42.5514 24.859 42.3338 24.6111C41.8652 23.8421 41.534 22.9975 41.3553 22.115" stroke="black" stroke-width="0.600071" stroke-linecap="round"/>
                <path d="M44.0335 27.5257L43.9951 27.3825C41.0181 27.7236 41.7001 23.4011 39.9524 22.0314C39.5637 22.2891 39.6867 23.3284 39.7633 23.6141L40.0315 24.6145L39.8344 25.5868C39.7399 26.3782 39.714 26.8449 39.5788 27.4943C39.2285 28.1133 39.2009 28.8634 39.5047 29.5059C39.7524 29.286 39.6635 28.3911 39.8754 28.0273C40.0309 27.4105 40.2871 26.8233 40.6336 26.2894C40.9841 25.8892 41.6254 25.4103 41.6149 24.8006C41.4955 24.0685 41.303 23.3503 41.0401 22.6566C40.4295 22.6669 40.5161 23.5632 40.3065 23.9256C39.7825 24.8321 39.5525 23.9743 38.942 23.9852C38.0452 24.0748 38.8278 25.8593 38.9805 26.429" stroke="black" stroke-width="0.600071" stroke-linecap="round" stroke-linejoin="round"/>
                <path d="M47.6013 25.9565C47.9729 26.4908 48.4583 26.9363 49.0228 27.2609C48.544 27.133 48.0823 26.9481 47.6477 26.7101C47.0522 26.3523 46.5517 25.8567 46.1884 25.265C45.8518 24.7168 45.4577 24.206 45.0128 23.7413C44.755 23.3533 44.0671 23.0754 43.8755 22.3607C43.7166 22.6479 43.696 22.9913 43.8194 23.2952C43.676 23.3337 43.7144 23.4769 43.6098 23.6577L43.8398 24.5155C44.0653 25.2789 44.5143 25.9572 45.1291 26.4633C45.7862 27.2066 46.5809 27.2998 47.4116 27.5368C48.0604 27.6691 49.2162 27.9724 49.9319 27.7805L49.0729 28.0109C49.359 27.9341 50.0085 28.0663 50.4374 27.9513C51.0354 27.9819 51.6279 28.08 52.2037 28.2437C53.2161 28.5855 54.3711 28.8883 55.3829 29.2303C55.985 29.4616 56.6009 29.6555 57.2271 29.8107C57.6045 29.9388 57.9905 30.0402 58.3822 30.1142C59.5354 30.4682 60.6699 30.88 61.7815 31.348C61.9795 31.4563 62.2056 31.5024 62.4303 31.4803C62.7549 31.5468 62.7931 31.6893 63.0108 31.9379C63.5517 32.3302 64.1511 32.6349 64.7871 32.8408C65.3418 32.9617 65.8694 33.1837 66.3432 33.4959C66.8847 33.8079 67.2889 34.1618 67.8334 34.4756C68.8188 35.0108 69.7553 35.6314 70.6319 36.3302C71.6054 36.9741 72.5196 37.7033 73.3637 38.509C73.9824 39.1091 74.7487 39.6697 75.3699 40.2691C76.2103 41.1161 76.6221 42.0786 77.4244 42.783C77.771 43.0993 77.9945 43.5279 78.0555 43.993C78.1321 44.2787 78.6742 44.5931 78.7892 45.022C79.0469 45.41 79.2008 45.9839 79.4969 46.5177C79.8567 46.9548 80.1433 47.4471 80.3456 47.9757C80.6138 48.976 81.3475 50.0051 81.7611 50.9671L83.1025 55.9702C83.2558 56.5423 83.0845 57.0473 83.2379 57.6194C83.513 58.7104 83.5564 59.847 83.3655 60.9561C83.2922 61.516 83.2903 62.0828 83.36 62.6431C83.37 63.2536 83.1327 64.0832 83.1425 64.6931C83.193 65.2544 83.1912 65.8191 83.1371 66.3801C82.9588 67.1124 82.7429 67.8351 82.4901 68.5453C82.105 69.8335 81.6212 71.0902 81.043 72.3043L81.1196 72.59C81.1515 72.7463 81.0616 72.9019 80.91 72.9524C80.7731 73.3268 80.6713 73.7131 80.606 74.1063C80.5114 74.8976 80.0536 75.4801 79.8163 76.3097C79.585 76.9109 79.3912 77.5258 79.2361 78.1508C79.1693 78.475 79.207 78.6157 79.1415 78.9421C79.076 79.2686 78.7226 79.6677 78.6559 79.9918C78.1866 81.3622 77.4222 82.6133 76.4165 83.6569C75.8151 84.2753 75.5779 85.1075 74.9772 85.7283C74.4344 86.3724 73.8166 86.9496 73.1369 87.4475C72.5356 88.0658 72.2217 88.6123 71.621 89.2331C71.1254 89.6723 71.0302 90.4638 70.3146 90.6557" stroke="black" stroke-width="0.600071" stroke-linecap="round" stroke-linejoin="round"/>
                <path d="M47.4097 25.2419C47.0747 24.5657 46.6376 24.0697 46.6915 23.1365C46.7205 22.6715 46.901 22.774 46.786 22.3451L46.5176 21.3441C46.8038 21.2674 46.8804 21.5531 46.8144 21.8778" stroke="black" stroke-width="0.600071" stroke-linecap="round" stroke-linejoin="round"/>
                <path d="M46.7608 25.1095L46.4746 25.1862C46.1397 24.51 45.1921 21.5466 45.8669 21.2122" stroke="black" stroke-width="0.600071" stroke-linecap="round"/>
                <path d="M45.2608 23.52C45.1842 23.2343 45.3935 22.8712 45.3169 22.5855C45.249 22.0445 45.1071 21.5155 44.8953 21.0131" stroke="black" stroke-width="0.600071" stroke-linecap="round" stroke-linejoin="round"/>
                <path d="M44.9395 8.58963C45.3511 9.55156 44.8755 11.2118 44.8575 12.2889C44.8014 13.2234 44.8904 14.119 44.8317 15.0535C44.869 15.9912 44.8123 16.9302 44.6625 17.8567C44.5191 17.8951 44.3763 17.9334 44.4425 17.6094" stroke="black" stroke-width="0.600071" stroke-linecap="round" stroke-linejoin="round"/>
                <path d="M45.4842 8.90391C45.6641 9.33714 45.6849 9.82003 45.543 10.2673C45.4412 11.2929 45.41 12.3241 45.4498 13.3538C45.3936 14.2883 45.6236 15.1461 45.5673 16.08C45.5383 16.5449 45.8739 17.2236 45.34 17.5202" stroke="black" stroke-width="0.600071" stroke-linecap="round" stroke-linejoin="round"/>
                <path d="M44.7122 10.0296C44.97 10.4176 44.6561 10.9641 44.6301 11.4308C44.4974 12.0796 44.4029 12.871 44.3077 13.6625C44.2126 14.454 44.3022 15.3494 44.2436 16.2846C44.2146 16.7495 44.3685 17.3234 43.978 17.5816" stroke="black" stroke-width="0.600071" stroke-linecap="round" stroke-linejoin="round"/>
                <path d="M44.1189 8.96307C44.3871 9.96344 43.5771 10.9473 43.5208 11.8812C43.388 12.53 43.5796 13.2446 43.4467 13.8928L43.1626 16.2677" stroke="black" stroke-width="0.600071" stroke-linecap="round" stroke-linejoin="round"/>
                <path d="M41.8899 13.238C42.1589 13.842 42.117 14.5391 41.7776 15.107C41.6803 15.5674 41.6526 16.0398 41.6956 16.5083C41.5238 17.0114 41.2099 17.5579 41.0387 18.0636L40.9567 19.4648C40.7892 20.1348 40.7161 20.8248 40.7392 21.5148C40.7863 22.3596 40.9069 23.1987 41.0996 24.0225" stroke="black" stroke-width="0.600071" stroke-linecap="round" stroke-linejoin="round"/>
                <path d="M41.8338 14.1724C42.1305 14.7061 41.7133 15.4305 41.5397 15.9368C41.3426 16.9091 40.7778 17.6731 40.5783 18.646C40.3362 19.4963 40.1584 20.3634 40.0463 21.2402C40.1172 21.9801 40.2618 22.7112 40.4777 23.4225" stroke="black" stroke-width="0.600071" stroke-linecap="round" stroke-linejoin="round"/>
                <path d="M41.4427 14.4307C40.895 15.5562 40.5961 16.786 40.566 18.0367C40.6096 19.3312 40.8006 20.6165 41.1353 21.8676" stroke="black" stroke-width="0.600071" stroke-linecap="round" stroke-linejoin="round"/>
                <path d="M42.8257 13.294C42.2535 13.4474 41.9106 14.4588 41.7394 14.9644C41.147 16.0941 40.8003 17.3358 40.7218 18.6082C40.6412 19.6167 40.7066 20.6313 40.9161 21.6208L41.4143 23.479" stroke="black" stroke-width="0.600071" stroke-linecap="round" stroke-linejoin="round"/>
                <path d="M43.4567 14.5032C43.4004 15.1497 43.1326 15.7599 42.6947 16.2395C42.1707 17.146 42.1145 18.0806 41.7717 19.092C41.4855 20.3295 41.3617 21.5988 41.4035 22.8679C41.3578 23.7299 41.3843 24.5941 41.4828 25.4516L41.9099 25.3371" stroke="black" stroke-width="0.600071" stroke-linecap="round" stroke-linejoin="round"/>
                <path d="M43.0965 16.5916C43.1565 17.0833 43.0778 17.5821 42.8692 18.0317C42.497 18.9129 42.2814 19.852 42.2321 20.8069C42.108 21.5115 42.1454 22.2349 42.3416 22.9227C42.3393 23.5737 42.4104 24.2227 42.5537 24.8576" stroke="black" stroke-width="0.600071" stroke-linecap="round" stroke-linejoin="round"/>
                <path d="M43.4006 15.4377C43.5644 15.8744 43.585 16.3518 43.4594 16.8012C43.2991 17.7885 43.2077 18.7858 43.1858 19.7857C42.9585 21.2259 43.1984 22.6936 43.1514 24.2356L43.2948 24.1972" stroke="black" stroke-width="0.600071" stroke-linecap="round" stroke-linejoin="round"/>
                <path d="M43.4389 15.581C43.9655 16.9718 43.4131 18.3457 43.4719 19.7091C43.4544 20.9622 43.5836 22.213 43.8571 23.4359L43.7427 23.0094" stroke="black" stroke-width="0.600071" stroke-linecap="round" stroke-linejoin="round"/>
                <path d="M43.5995 14.4651C44.1743 16.609 43.8512 18.8382 43.9595 20.957C44.0078 21.7101 44.8437 26.5424 43.5167 26.7447" stroke="black" stroke-width="0.600071" stroke-linecap="round" stroke-linejoin="round"/>
                <path d="M43.6762 14.7513C43.8678 15.4659 43.4489 16.1914 43.3154 16.8397C43.143 17.8732 43.0643 18.92 43.0802 19.9675C43.0623 21.0446 43.0445 22.1223 42.9878 23.057C42.9587 23.5219 43.3044 24.811 42.7703 25.107" stroke="black" stroke-width="0.600071" stroke-linecap="round" stroke-linejoin="round"/>
                <path d="M41.9588 15.2118C42.2165 15.5998 42.0454 16.108 42.0176 16.5752C41.7903 18.0153 41.5241 19.3125 41.4394 20.7137C41.3832 21.6483 41.1837 22.6212 41.1274 23.5551C41.0984 24.0201 41.2245 25.0611 40.8333 25.3195" stroke="black" stroke-width="0.600071" stroke-linecap="round" stroke-linejoin="round"/>
                <path d="M40.5789 18.6459C40.1798 20.5919 40.1057 22.6035 39.7065 24.5488" stroke="black" stroke-width="0.600071" stroke-linecap="round"/>
                <path d="M59.3785 89.9099L58.6629 90.1017" stroke="black" stroke-width="0.600071" stroke-linecap="round"/>
                <path d="M59.3785 89.9099C59.2206 90.3465 58.7642 90.5997 58.3099 90.5027C58.1956 90.0762 58.3661 89.5682 58.2129 88.9967C58.2406 88.4434 58.195 87.8889 58.0774 87.3475L56.8128 82.6308C56.7017 82.335 56.5253 82.068 56.2967 81.8497L55.9512 80.5612C55.664 80.2027 55.4497 79.7917 55.3201 79.3512C55.1517 78.8805 54.8283 78.481 54.4028 78.2179C53.7583 77.6762 53.1808 77.0596 52.6828 76.381C52.4251 75.993 51.9571 75.9624 51.6989 75.5726C51.4407 75.1827 51.2106 74.3243 50.7533 74.9066C50.5438 75.2691 50.5944 76.0215 50.3826 76.3852C50.2183 76.9604 50.1197 77.5523 50.0886 78.1495C49.8485 79.2073 49.6747 80.279 49.5684 81.3583C49.6834 82.5903 49.6559 83.8316 49.4864 85.0575C49.2921 85.9616 49.3326 86.9 49.6039 87.7837C49.7084 88.2785 49.7409 88.7858 49.7004 89.2899C49.7812 89.8788 49.9358 90.4552 50.1604 91.0055C50.3439 91.9764 50.6002 92.9322 50.9269 93.8647C51.5581 95.0747 53.2113 97.2357 54.8244 96.9567C55.2698 96.9138 55.7051 96.7971 56.1123 96.6114C56.501 96.3537 56.5979 95.5617 56.6263 95.0943C56.7591 94.4456 56.9304 93.9405 57.0638 93.2916C57.1921 92.8132 57.3776 92.3519 57.6162 91.9177C57.853 91.4771 57.9331 90.9694 57.8435 90.4776" stroke="black" stroke-width="0.600071" stroke-linecap="round" stroke-linejoin="round"/>
                <path d="M81.2267 80.9873L80.9585 79.9869C81.093 80.7802 81.1553 81.584 81.1446 82.3885C81.1546 82.999 81.7194 84.5324 81.2621 85.1148" stroke="black" stroke-width="0.600071" stroke-linecap="round" stroke-linejoin="round"/>
                <path d="M81.3681 78.6514C81.5589 79.4259 81.6685 80.2181 81.6952 81.0152C81.7434 81.7683 81.935 82.483 81.9839 83.2359C82.0982 83.6623 81.9277 84.1704 82.0427 84.5993L81.8511 83.8847" stroke="black" stroke-width="0.600071" stroke-linecap="round" stroke-linejoin="round"/>
                <path d="M82.2939 78.0969L82.2555 77.9537C82.4779 78.9897 82.5561 80.0514 82.4881 81.1089C82.4981 81.7194 82.6513 82.2909 82.7001 83.0438C82.6198 83.4957 82.6907 83.9614 82.9018 84.369C82.4134 83.1207 82.6692 81.2138 82.7928 79.9575C82.9164 78.7013 83.0002 77.297 83.1225 76.0384C83.4291 77.182 83.3087 78.44 83.4323 79.4818C83.4376 80.6314 83.5905 81.7756 83.8873 82.8861C83.8544 81.056 84.007 79.3277 83.9772 77.4993C83.929 76.7462 84.2045 76.0592 84.1181 75.1635C84.0415 74.8778 83.9647 74.5915 84.2126 74.3722C84.6242 75.3341 84.3603 76.6306 84.4451 77.5273C84.4656 78.7476 84.9533 79.996 84.7927 81.1114C84.182 81.1217 84.6956 79.6054 84.6188 79.3191C84.7393 78.061 84.4327 76.9175 84.4147 75.6966C84.4696 74.6796 84.4526 73.66 84.3637 72.6455C84.3928 72.1806 84.5226 71.5306 84.2667 71.1395L85.4931 75.7137C85.0431 74.6086 85.2685 73.1689 85.1072 71.9865C84.9639 71.3516 84.8928 70.7025 84.8951 70.0516C84.7378 69.7084 84.7444 69.3125 84.913 68.9745C85.0664 69.5466 85.7001 73.0539 86.1671 73.0789C86.2339 72.7547 85.9755 72.3642 85.8989 72.0785C85.7129 71.2535 85.5907 70.4153 85.5335 69.5715C85.3984 68.5914 85.1901 67.6229 84.9103 66.6739C85.0636 67.246 85.6205 70.467 86.0884 70.495C86.1552 70.1708 85.8968 69.7804 85.9636 69.4562C85.877 68.5599 85.8281 67.807 85.7391 66.9114C85.5171 65.7967 85.2225 64.6978 84.857 63.6215L85.317 65.3372C85.4704 65.9092 85.9097 66.404 86.0631 66.9761C86.1606 66.6242 86.1662 66.2533 86.0797 65.8987C86.0181 65.0059 85.8831 64.1197 85.676 63.2492L84.5257 58.9589" stroke="black" stroke-width="0.600071" stroke-linecap="round" stroke-linejoin="round"/>
                <path d="M80.3473 79.9954C80.8073 81.711 81.4581 84.1383 80.8403 85.8392L79.5762 81.1243C79.6459 80.6702 79.6263 80.207 79.5185 79.7605C79.5012 81.0138 79.6307 82.2647 79.9045 83.4877C79.9911 84.384 80.3849 86.4236 79.8225 87.187C79.3447 86.549 79.2859 85.1856 79.1993 84.2894C79.1855 83.2923 79.0236 82.3029 78.7188 81.3535C79.1304 82.3154 78.9433 83.8982 78.8852 84.8353C78.8271 85.7723 79.2507 87.3422 78.6882 88.1056C78.4556 87.1402 78.295 86.1589 78.2078 85.1697C78.1212 84.2734 78.2819 83.1581 77.9067 82.3392C78.0975 83.393 78.1276 84.4698 77.9958 85.5328C77.837 86.6477 77.9984 87.8301 77.8372 88.9463L77.0703 86.0859C76.8403 85.2281 77.0374 84.2558 76.6666 83.4364C77.1166 84.5415 76.4876 85.6296 76.5081 86.8499C76.5181 87.4604 76.6558 89.1083 76.1195 89.4055C75.6799 88.9102 75.8796 87.9378 75.8308 87.1849C75.7819 86.432 75.7337 85.6789 75.6447 84.7833C75.5779 85.1075 75.4092 85.6125 75.3406 85.9371C75.1688 86.4403 75.3227 87.0142 75.1899 87.663C75.0572 88.3118 75.0392 89.3889 74.5813 89.9714L73.6993 86.6815C74.0342 87.3577 73.7704 88.6542 73.6352 89.3036C73.6062 89.7686 73.4079 90.7438 72.9784 90.859C72.6584 90.2379 72.4755 89.5554 72.4418 88.8576C72.3058 89.777 71.964 90.6541 71.4419 91.4237C71.3608 90.8349 71.2063 90.2585 70.982 89.7081C70.2279 89.7568 69.8752 90.1583 69.1977 90.4927C68.5714 90.6758 67.9717 90.9395 67.4135 91.2774C66.0206 91.8043 64.7425 92.7595 63.1678 93.1817" stroke="black" stroke-width="0.600071" stroke-linecap="round" stroke-linejoin="round"/>
                <path d="M86.8847 60.318C86.7313 59.746 86.9026 59.241 86.7493 58.6689L86.0978 56.2392C86.0212 55.9535 85.8401 55.8512 85.8011 55.7056C85.5768 55.1552 85.4222 54.5788 85.3411 53.99C85.1721 53.4624 84.9342 52.9595 84.6334 52.4943C84.2984 51.8181 84.3268 51.3507 83.849 50.7128C83.5913 50.3248 83.4756 49.8934 83.2179 49.5028C83.1795 49.3596 82.9602 49.1148 82.9211 48.9692C82.7011 48.7219 82.8068 48.5427 82.4434 48.3313C82.6934 49.6446 83.0885 50.9262 83.6216 52.1523C84.4093 53.4873 85.0021 54.9279 85.382 56.4305C85.1209 55.3747 84.7914 54.337 84.3955 53.3241C84.1965 52.8696 84.0673 52.3878 84.0122 51.8948C83.8979 51.4683 83.5345 51.2569 83.4195 50.828L84.7609 55.831C84.8752 56.2575 86.0818 59.6138 85.548 59.9104" stroke="black" stroke-width="0.600071" stroke-linecap="round" stroke-linejoin="round"/>
                <path d="M54.3458 96.3156L54.3074 96.1725C53.8217 97.2221 53.5277 98.9865 54.2638 100.015C54.7385 100.542 55.3216 100.961 55.9733 101.242C56.2979 101.308 56.689 101.05 57.0135 101.117C57.2997 101.04 57.479 101.145 57.9109 101.029" stroke="black" stroke-width="0.600071" stroke-linecap="round" stroke-linejoin="round"/>
                <path d="M55.6343 95.9701C55.1004 96.2667 55.2921 96.9813 55.1203 97.4871C54.8406 98.2343 54.7916 99.0479 54.9795 99.8229C55.1811 101.148 57.0523 101.259 58.1024 101.743" stroke="black" stroke-width="0.600071" stroke-linecap="round" stroke-linejoin="round"/>
                <path d="M54.1158 95.4578C54.5811 96.1095 55.149 96.6817 55.7976 97.1521C56.0781 97.4195 56.3968 97.6439 56.7432 97.818C57.2469 97.9892 57.3921 97.9503 57.8984 98.1215C58.9768 98.1386 62.0032 98.5529 62.0999 100.06" stroke="black" stroke-width="0.600071" stroke-linecap="round" stroke-linejoin="round"/>
                <path d="M55.0508 95.5135C55.2037 96.5117 55.8353 97.372 56.7424 97.8177C57.5501 98.1985 58.3991 98.485 59.2726 98.6713C60.1026 98.9059 61.0007 98.8212 61.7646 99.3824" stroke="black" stroke-width="0.600071" stroke-linecap="round" stroke-linejoin="round"/>
                <path d="M51.8255 96.0719C52.1988 96.8913 51.82 97.7588 51.723 98.5508C51.694 99.0158 51.7175 100.238 50.9994 100.43" stroke="black" stroke-width="0.600071" stroke-linecap="round" stroke-linejoin="round"/>
                <path d="M50.6928 99.2868C50.2658 99.4013 50.3424 99.6871 50.1306 100.051L49.6349 100.49C48.8902 101.147 49.1694 100.461 48.8326 99.7856C48.4439 100.043 48.2418 101.016 47.5262 101.208" stroke="black" stroke-width="0.600071" stroke-linecap="round" stroke-linejoin="round"/>
                <path d="M49.1928 97.6971C49.3362 97.6587 49.479 97.6204 49.4406 97.4772L49.2106 96.6194C49.6111 96.9692 49.8906 98.5823 50.1743 98.5063C50.307 97.8575 49.8961 96.8954 49.5611 96.2192C50.1415 96.6768 50.2688 97.7149 50.9949 98.1328C50.7066 97.3435 50.4885 96.5302 50.3433 95.7025C50.8847 96.0145 50.9745 96.9125 51.519 97.2263C51.548 96.7614 51.1456 96.4069 51.4601 95.8628C52.0324 95.7094 52.3774 96.9961 52.4924 97.425C52.2347 97.037 52.1375 95.5284 52.6714 95.2318C52.9967 95.7399 53.2479 96.2918 53.4176 96.8707C53.2642 96.2986 53.3971 95.6504 53.2437 95.0784C53.9978 95.0297 53.7321 96.3266 54.3426 96.3158C54.3716 95.8508 53.9494 94.276 54.9612 94.6179C55.4648 94.7891 55.6305 95.9704 55.8482 96.219C56.161 95.678 55.2449 94.5418 56.1039 94.3115C56.3239 94.5588 56.2955 95.0261 56.5155 95.2734C56.7732 95.6615 56.955 95.7688 56.9271 96.2354C56.6386 95.4461 56.4205 94.6328 56.2755 93.8051C56.8169 94.1171 56.8021 95.1959 57.0982 95.7297C57.8806 95.2137 56.5518 93.1185 57.3718 92.7452C57.9132 93.0571 58.1284 94.9938 58.32 95.7084C58.4085 95.1056 58.3488 94.4905 58.1461 93.9161C58.0029 93.2812 57.9317 92.6321 57.9341 91.9812C58.8697 92.0366 58.6239 94.554 59.5597 94.61C59.7315 94.1069 59.2431 92.856 59.9971 92.8073C60.5694 92.6538 60.876 93.7974 60.991 94.2263" stroke="black" stroke-width="0.600071" stroke-linecap="round" stroke-linejoin="round"/>
                <path d="M46.23 47.1624L46.5162 47.0856C46.7361 47.6056 47.0213 48.0954 47.3648 48.5436L48.5689 49.6C48.8683 49.9005 49.1161 50.2481 49.3025 50.629C49.5831 50.8964 49.9017 51.1208 50.2482 51.2949C50.8627 51.904 51.4061 52.5807 51.8681 53.3121C52.6177 54.1777 53.2391 55.1463 53.713 56.1884L53.9046 56.903C54.019 57.3295 54.3051 57.2528 54.5617 57.6463C54.9622 57.9961 55.0778 58.4274 55.479 58.7796C56.1743 59.6655 56.9408 60.2266 57.4567 61.0071C57.9908 61.8219 58.6055 62.581 59.2917 63.2729C59.6383 63.5892 59.8619 64.0178 59.9228 64.4829C60.1144 65.1975 60.5156 65.5497 60.7072 66.2643L61.5504 69.4092C61.6585 69.8555 61.6785 70.3186 61.6092 70.7727C61.8207 71.2752 61.9625 71.8042 62.0308 72.3451C62.0031 72.8984 62.0487 73.453 62.1663 73.9943C62.3197 74.5664 62.1483 75.0714 62.3017 75.6434C62.4194 76.1848 62.4649 76.7393 62.4372 77.2926L62.667 78.1498C62.7814 78.5763 62.638 78.6147 62.5725 78.9412C62.5546 80.0182 62.5368 81.0959 62.48 82.0306C62.4232 82.2811 62.44 82.5426 62.5283 82.7837L62.7199 83.4983C62.6908 83.9633 62.3392 84.3664 62.3108 84.8338C61.9685 85.845 61.8072 86.9605 61.5027 88.1151C61.37 88.7639 61.2754 89.5553 61.1419 90.2036C61.1035 90.602 61.0008 90.9917 60.8378 91.3574C60.6661 91.8606 60.3522 92.4071 60.4672 92.836" stroke="black" stroke-width="0.600071" stroke-linecap="round" stroke-linejoin="round"/>
                <path d="M45.4372 47.0687L45.3988 46.9255C45.227 47.4287 44.8365 47.6895 44.808 48.1562C44.622 48.6314 44.4974 49.1283 44.4373 49.6348C44.2402 50.6071 44.3632 51.6464 44.1637 52.6194C44.0372 53.5483 43.9806 54.4853 43.9945 55.4225C43.8219 56.4433 43.7908 57.4829 43.902 58.512C43.9636 59.5425 43.9326 60.5764 43.8096 61.6015C43.7603 62.512 43.7997 63.425 43.9271 64.3277C43.7838 64.3662 43.8221 64.5093 43.7176 64.6902L43.9476 65.548C43.9576 66.1585 43.9297 66.6251 43.9421 67.2349C43.8753 67.5591 43.9903 67.988 43.9242 68.312C43.858 68.636 43.6887 69.1412 43.6201 69.4658L43.0197 72.3852C42.8609 73.5001 42.8023 74.4353 42.6411 75.5514C42.585 76.486 42.7507 77.6673 42.6921 78.6025C42.4764 79.7267 42.4234 80.8759 42.5345 82.015C42.5198 82.5681 42.5652 83.121 42.67 83.6642L42.8616 84.3788C42.9382 84.6645 42.6898 84.882 42.7671 85.1702C43.0018 86.3318 43.309 87.4776 43.6869 88.6008L44.7601 92.6035C44.8719 93.2022 45.128 93.7647 45.5062 94.2424C46.032 94.7195 46.4888 95.2673 46.8634 95.8702" stroke="black" stroke-width="0.600071" stroke-linecap="round" stroke-linejoin="round"/>
                <path d="M44.3896 40.3007C44.4379 41.0538 46.0714 41.995 46.5108 42.4898C47.5714 43.5846 48.9848 44.278 50.1498 45.1913C50.9137 45.7525 51.6116 46.6384 52.5854 46.8363C53.6682 47.2587 54.6651 47.8741 55.5274 48.6525C56.2913 49.2137 57.3037 49.5555 58.0675 50.1167C58.8698 50.821 59.6343 51.3821 60.4366 52.0865C60.6183 52.1912 60.7993 52.2955 60.8371 52.4362C60.8748 52.5769 61.0948 52.8242 61.1338 52.9698C61.3854 53.3883 61.6941 53.7698 62.0511 54.1031C62.7464 54.989 63.3033 55.9126 63.9628 56.6552C64.5172 57.5789 65.0333 58.36 65.5885 59.2841C65.932 59.7322 66.2172 60.2221 66.4371 60.742C66.6742 61.3402 66.8414 61.9637 66.9353 62.6002L68.2006 67.3193C68.239 67.4625 68.1338 67.6435 68.2106 67.9299L68.4787 68.9296C68.4608 70.0067 68.7674 71.1503 68.6062 72.2664C68.4857 73.5244 68.8307 74.8111 68.7436 76.2131C68.7146 76.678 68.5465 77.1854 68.5163 77.6532C68.5263 78.2637 68.4984 78.7303 68.5108 79.3402C68.3779 79.9883 68.0634 80.5324 67.9306 81.1812C67.6676 81.9828 67.3061 82.7488 66.8542 83.4616C66.4137 84.2258 66.0652 85.0393 65.8161 85.8851C65.5388 86.7612 65.2048 87.6184 64.8162 88.4512C64.016 90.045 63.9808 92.2016 62.8556 93.7271" stroke="black" stroke-width="0.600071" stroke-linecap="round" stroke-linejoin="round"/>
                <path d="M43.6946 41.7134C43.3059 41.9711 43.2757 42.439 43.0272 42.6584C42.7028 43.1147 42.4221 43.6003 42.1886 44.109C41.703 45.1587 40.9972 45.9605 40.5115 47.0101C39.7218 49.2136 38.3876 51.106 37.4922 53.4886L36.3522 56.093C35.9515 57.0835 35.6084 58.0963 35.3245 59.1263C34.9823 60.1375 35.0689 61.0338 34.8692 62.0061C34.6981 63.1217 34.4277 64.2198 34.0611 65.2875C33.7713 65.8667 33.5755 66.4881 33.4809 67.1285C33.3855 67.7947 33.3607 68.4689 33.4068 69.1401C33.2741 69.7889 33.1028 70.2939 32.9694 70.9429C32.8961 71.5028 32.8943 72.0696 32.9639 72.6299C33.0586 74.8187 33.3828 76.9914 33.931 79.1125L34.7742 82.2574C34.8682 82.8939 35.0353 83.5174 35.2724 84.1156C35.5692 84.6492 36.1129 84.9625 36.4097 85.4961C37.1049 86.382 37.5185 87.344 38.3214 88.0482C38.7514 88.4641 39.1329 88.9272 39.4587 89.4288C39.6855 89.8922 39.9569 90.3326 40.2689 90.7436C40.6969 91.0642 41.0995 91.4174 41.473 91.8C41.7987 92.3015 42.1802 92.7647 42.6102 93.1805C42.9653 93.66 43.3449 94.1208 43.7475 94.5611C44.1479 94.9109 44.6165 94.9413 45.0175 95.2929C45.4184 95.6445 45.4952 95.9308 45.8963 96.283" stroke="black" stroke-width="0.600071" stroke-linecap="round" stroke-linejoin="round"/>
                <path d="M41.1293 34.4337C41.1003 34.8986 40.7104 35.1592 40.3575 35.5601C39.9994 36.0405 39.7286 36.58 39.5574 37.1539C39.1099 38.3461 38.8442 39.6431 38.397 40.836L37.8852 42.3517C37.7342 42.8221 37.484 43.2548 37.1516 43.6207C36.7327 44.3462 36.6758 45.2803 36.3619 45.8242L35.3134 47.638C35.0006 48.179 35.0779 48.4671 34.5798 48.907C34.2293 49.3072 33.9785 49.5253 33.6262 49.9286C33.2504 50.4252 32.7962 50.8575 32.2815 51.2086C31.7859 51.6478 31.328 52.2303 30.9368 52.4886C29.0589 53.7328 27.508 55.4099 26.4151 57.3782C25.6149 58.972 24.5285 60.6418 24.3771 62.3653C24.3748 63.0162 24.4459 63.6653 24.5892 64.3002C24.7072 64.8425 24.7528 65.3981 24.7249 65.9526C24.7349 66.5631 24.7069 67.0296 24.7194 67.6395C24.7502 67.8894 24.7664 68.1408 24.7676 68.3926C24.8194 68.7043 24.8002 69.0237 24.7115 69.3271C24.6561 70.4338 24.7471 71.5428 24.9824 72.6254L25.404 74.1979C25.5574 74.77 25.4244 75.4181 25.616 76.1328C26.1526 78.1341 26.4538 80.9646 27.9513 82.5548C28.6084 83.2982 29.3852 84.4684 30.1492 85.0303C31.3148 85.9435 32.4799 86.8569 33.5021 87.8085C35.1839 89.5028 37.5329 90.2542 39.3192 91.765C40.1968 92.5223 41.1469 93.1912 42.156 93.7622C42.9199 94.3234 44.3334 95.0174 45.2968 94.6056" stroke="black" stroke-width="0.600071" stroke-linecap="round" stroke-linejoin="round"/>
                <path d="M40.1474 35.9201C40.4719 35.9866 41.0725 35.3658 41.3587 35.2891C41.8926 34.9925 41.9977 34.8115 42.685 35.0869C43.5923 35.6097 44.3945 36.3141 45.3018 36.8368C46.1556 37.4125 46.9492 38.0724 47.6708 38.8066C48.3612 39.406 49.1182 39.9241 49.9271 40.3508C51.7942 41.588 53.7734 42.6476 55.8387 43.516C57.4332 44.3142 59.3429 44.5682 60.8695 45.6935C61.6334 46.2547 62.2545 46.8542 63.019 47.4152C63.2517 47.7396 63.5354 48.0243 63.8591 48.2584C64.2986 48.7537 64.843 49.0669 65.2825 49.5622C65.6395 49.8956 65.9482 50.277 66.1997 50.6955C66.6002 51.0452 66.9254 51.1141 67.327 51.4655C67.7201 51.8296 68.0438 52.2619 68.2825 52.7414C68.5792 53.275 69.1614 53.7315 69.4963 54.4077C70.0507 55.3313 70.2807 56.1891 70.8352 57.1134C71.3581 58.2904 71.7406 59.5249 71.975 60.7913C72.3273 61.8192 72.609 62.8699 72.8182 63.9362C72.7892 64.4011 72.762 64.8707 72.7743 65.48C72.8509 65.7657 72.6025 65.9832 72.6798 66.2713L72.948 67.2717C72.88 68.8666 72.5792 70.4433 72.0552 71.9517C71.5411 73.4687 71.3905 75.1946 70.8756 76.7086C70.4749 77.6992 70.1318 78.7119 69.848 79.7419C69.5439 80.8957 69.316 82.336 68.6876 83.424C67.8874 85.0177 66.9443 86.6492 66.1441 88.2429C65.9107 88.7516 65.6299 89.2372 65.3055 89.6935C65.096 90.0559 64.7042 90.3118 64.7815 90.6" stroke="black" stroke-width="0.600071" stroke-linecap="round" stroke-linejoin="round"/>
                <path d="M41.5338 28.5027L41.6771 28.4642C41.7004 28.6257 41.795 28.7681 41.9349 28.8523C42.5071 28.6988 42.8421 29.375 43.1005 29.7655C43.6551 30.2521 44.2797 30.6528 44.9534 30.9542C45.1352 31.0589 45.4571 31.1254 45.6791 31.3728C45.901 31.6202 45.9758 31.9065 46.1568 32.0107C46.5195 32.2198 47.0258 32.3909 47.2458 32.6382C47.8263 33.0958 48.0481 33.3426 48.6976 33.4747C49.2013 33.646 49.7482 33.959 50.2537 34.1298C50.6384 34.3763 51.0521 34.5742 51.4855 34.719L53.433 35.1163C53.8951 35.1923 54.3447 35.3303 54.7698 35.5265C55.0943 35.593 55.3804 35.5163 55.5998 35.7611C55.9625 35.9701 56.0003 36.1109 56.3637 36.3223C57.5571 36.7684 58.6738 36.9287 59.7245 37.413C60.7323 37.7293 61.6857 38.1975 62.5517 38.8015C63.4392 39.2912 64.2998 39.828 65.1299 40.4096C66.8394 41.6367 68.1966 43.2646 69.9061 44.4917C70.8518 45.1576 71.4061 46.0813 72.2474 46.9287C72.5051 47.3167 73.0879 47.7756 73.3463 48.166C73.643 48.6997 73.7963 49.2711 74.0924 49.8049C74.4561 50.2325 74.7002 50.7485 74.8001 51.3007C74.9535 51.8727 75.3545 52.2243 75.5079 52.7964L75.7379 53.6542C75.8145 53.9399 76.1006 53.8632 76.1383 54.004L76.3683 54.8618C76.4827 55.2882 76.8845 55.6429 76.9995 56.0718C77.5261 57.4626 77.5181 59.1502 78.1877 60.5034C78.9875 62.056 79.4449 63.7619 79.5291 65.5064C79.7002 66.9578 79.7843 68.4181 79.7808 69.8796" stroke="black" stroke-width="0.600071" stroke-linecap="round" stroke-linejoin="round"/>
                <path d="M41.6858 29.0745L40.1123 29.4964C39.656 29.6907 39.2631 30.0085 38.9778 30.4138C38.1293 31.2544 37.9297 32.2268 37.444 33.2765C36.9825 34.1439 36.4298 34.9598 35.7952 35.7103C35.4448 36.1105 34.9468 36.551 34.5939 36.9519C34.241 37.3527 34.0699 37.8584 33.6788 38.1167C33.3659 38.4954 32.9801 38.8073 32.5442 39.0341C32.2105 39.391 31.8286 39.6998 31.4097 39.9515C30.665 40.6083 29.7022 41.0225 28.997 41.8241C28.3957 42.4424 27.5096 43.1424 27.2717 43.9722C27.0999 44.4754 26.891 44.8402 26.8242 45.1644C26.5357 45.7317 26.1558 46.2477 25.6995 46.6917L24.0125 48.983C23.3565 49.769 22.8701 50.6818 22.5838 51.6641C22.2448 52.5557 22.0307 53.4897 21.9474 54.4396C21.832 55.7204 21.5512 56.981 21.112 58.19C21.0453 58.5142 20.7616 58.5902 20.6541 58.7699L20.457 59.7422C20.2852 60.2454 20.0764 60.6103 19.9046 61.1161C19.5623 62.1273 19.6872 63.1661 19.526 64.2823C19.4331 64.8407 19.4313 65.4104 19.5205 65.9692C19.6264 66.4161 19.644 66.8795 19.5724 67.3332C19.7346 68.5107 20.0436 69.6632 20.4922 70.7639C20.7889 71.2975 21.1233 71.9739 21.4174 72.5075C21.7553 73.0647 22.019 73.6636 22.2018 74.289C22.5426 75.5896 23.0331 76.8464 23.6637 78.034C24.2487 79.2993 24.9804 80.4916 25.8436 81.5865C26.2771 82.066 26.7563 82.5023 27.2745 82.889C27.5071 83.2148 27.7909 83.5008 28.115 83.7359C28.6564 84.0479 29.1274 84.0777 29.319 84.7923" stroke="black" stroke-width="0.600071" stroke-linecap="round" stroke-linejoin="round"/>
                <path d="M41.3427 25.4898C41.6877 26.7765 41.4602 28.2161 41.3757 29.618C41.3857 30.2285 41.3498 32.3827 40.8159 32.6793C40.8011 32.3012 40.8549 31.9234 40.9748 31.5644C41.187 30.6803 41.3043 29.7763 41.3249 28.8675C41.3676 27.7112 41.2635 26.5542 41.0151 25.4242C41.0979 26.0308 41.1089 26.6451 41.048 27.2543C41.1012 28.3316 41.0831 29.4113 40.9938 30.4864C40.8047 32.0691 40.8352 33.8998 39.9966 35.3504C39.9067 34.8586 39.9868 34.3508 40.2239 33.9103C40.3964 32.8768 40.4751 31.83 40.4591 30.7825C40.5119 30.3278 40.4921 29.8675 40.4003 29.4191C40.3903 28.8086 40.7043 28.2653 40.6559 27.5116C40.6821 27.0075 40.6495 26.5021 40.5589 26.0056C40.6711 27.0584 40.4767 28.1213 39.9991 29.0669C39.7551 28.4835 39.7433 27.8289 39.9662 27.2368C40.1949 27.5164 40.2926 27.8806 40.2344 28.2372C40.1857 28.4807 40.093 28.7134 39.9608 28.9237C39.894 29.2479 39.789 29.4269 39.8662 29.7151C39.7603 30.4966 39.4912 31.2473 39.0765 31.9186C38.7638 32.4596 38.0847 32.7977 37.7318 33.1986C37.5223 33.561 37.1305 33.8169 36.9216 34.1818C36.96 34.325 36.8926 34.6467 36.7498 34.685C36.6071 34.7233 36.5021 34.9049 36.3994 35.0852C37.3727 35.2814 38.917 33.031 39.336 32.3061C40.0953 30.8099 40.649 29.2182 40.9821 27.5744C40.6726 28.3365 40.4214 29.121 40.2308 29.921C40.1362 30.7124 40.2637 31.7511 39.9849 32.4384C39.5454 31.9431 40.0411 31.5039 39.7451 30.9707C40.1006 31.8862 40.1552 32.8911 39.901 33.8401C39.8528 33.087 40.2717 32.3615 40.3662 31.5702C40.6017 30.741 40.6987 29.949 40.9366 29.1192C41.384 27.927 41.3252 26.5636 41.5914 25.2664C41.783 25.981 41.4408 26.9923 41.489 27.7454C41.46 28.2103 41.3383 29.4713 41.7394 29.8234C42.0899 29.4232 41.8901 28.0976 41.9185 27.6302C41.9085 27.0197 41.3535 26.0962 41.668 25.5521C41.9258 25.9402 41.8313 26.7341 41.8419 27.3445L42.3401 29.2027C42.5317 29.9173 42.8178 29.8406 43.4007 30.2975C43.7635 30.5065 44.096 31.1834 44.528 31.0675C44.5318 30.7034 44.3825 30.3544 44.1164 30.1056C43.6095 29.5089 43.1763 28.8536 42.8259 28.1536C42.5292 27.6199 42.5577 27.1532 42.261 26.6196C42.0032 26.2315 41.6039 25.8763 41.7726 25.3713C42.314 25.6833 42.4419 26.7239 42.7363 27.2581C43.0947 27.8997 43.5134 28.5057 43.9867 29.0681C44.6437 29.8114 45.5633 30.9434 46.6419 30.9612C46.6949 30.8926 46.7129 30.8032 46.6904 30.7196C46.668 30.6359 46.6077 30.5675 46.5275 30.5347" stroke="black" stroke-width="0.600071" stroke-linecap="round" stroke-linejoin="round"/>
                <path d="M44.3632 23.6064C44.7464 25.0357 44.0512 26.4478 45.1503 27.6858C45.8073 28.4291 46.7448 28.484 47.6804 28.5394C48.3293 28.6717 49.6179 28.3263 50.2008 28.7832C49.7737 28.8977 49.3317 28.403 49.0074 28.3371C48.1383 27.9569 47.1645 27.759 46.2954 27.3788C45.3882 26.856 43.6402 25.4857 43.4764 24.3039C43.5792 24.654 43.7701 24.972 44.0308 25.2275C44.5085 25.8655 45.0246 26.6465 45.503 27.2843C45.7604 27.6298 46.0981 27.9075 46.487 28.0934C46.6688 28.1981 46.9265 28.5888 47.0675 28.551C47.1342 28.2268 46.5514 27.7699 46.3338 27.5219C45.8561 26.884 45.3783 26.2461 44.8616 25.4652C44.246 24.2118 43.6968 22.9269 43.2161 21.6159C43.7527 23.6173 44.0798 25.9811 45.1503 27.6858C44.5087 25.8661 44.1538 23.9694 43.6555 22.1107C43.9286 23.4154 44.274 24.7039 44.6903 25.9702C44.948 26.3582 45.6156 27.7139 46.2669 27.8455C46.323 26.911 45.7687 25.9873 45.3953 25.168C45.0985 24.6343 44.6616 24.1389 44.363 23.6058C44.1053 23.2177 44.1331 22.748 43.7319 22.3958C43.5046 23.8359 44.8613 25.464 45.5974 26.4923C46.2544 27.2356 47.4707 28.9013 48.6543 28.7374C47.632 27.7858 46.1803 26.9492 45.158 25.9976C44.3557 25.2932 43.839 24.5123 43.0369 23.8085C42.7795 23.4633 42.4418 23.1858 42.053 23C41.8942 24.1149 42.8096 25.2487 43.1824 26.0682L43.9106 28.7842C43.6995 27.8097 43.3448 26.872 42.8578 26.0018C42.5228 25.3256 42.4362 24.4293 41.9969 23.9346C41.7312 25.2315 42.8499 27.6894 41.7154 28.6068C40.9433 27.4345 41.2604 25.2024 41.529 23.9066C41.6635 24.6998 41.7258 25.5036 41.7151 26.3081C41.6861 26.773 41.518 27.2805 41.4878 27.7483C41.421 28.0725 41.6412 28.3204 41.3933 28.5396C40.8389 27.616 41.1305 25.8523 41.1507 24.774C41.2712 23.5159 41.2148 22.1518 41.7 21.1003C41.6709 21.5652 41.2811 21.8258 41.2143 22.15C40.7872 23.4089 40.5192 24.7161 40.4167 26.0411L40.2475 28.8442C40.1545 29.4027 40.1527 29.9723 40.242 30.5312C39.8402 28.928 39.6541 27.2783 39.6886 25.6257C39.7448 24.6912 39.9443 23.7182 40.0006 22.7843C40.0296 22.3194 39.914 21.8881 40.3047 21.6305C40.5624 22.0185 40.1842 22.8886 40.1156 23.2132C39.9311 24.1028 39.814 25.005 39.7654 25.9121C39.7092 26.8466 39.9899 28.4568 39.4634 29.364C38.9473 28.5829 38.8502 27.0769 38.7636 26.1807C38.7763 25.3363 38.8586 24.4943 39.0094 23.6633C38.9656 25.207 38.7742 26.791 38.8713 28.297C38.6259 27.2844 38.4526 26.2557 38.3526 25.2186C38.9633 25.2083 38.6592 26.3621 38.6692 26.9726L39.0524 28.4019" stroke="black" stroke-width="0.600071" stroke-linecap="round" stroke-linejoin="round"/>
                <path d="M47.3737 92.0562L48.0635 94.629C48.3701 95.7725 49.8496 96.1418 50.4048 97.0659" stroke="black" stroke-width="0.600071" stroke-linecap="round"/>
                <path d="M48.565 90.2041C48.7742 91.2704 49.0559 92.3211 49.4082 93.349C49.5998 94.0636 50.0775 94.7016 50.2692 95.4162C50.5659 95.9498 50.7957 96.807 51.378 97.2641C51.483 97.0825 51.5876 96.9017 51.368 96.6536" stroke="black" stroke-width="0.600071" stroke-linecap="round" stroke-linejoin="round"/>
                <path d="M50.1009 89.6395C50.3555 90.6971 50.6851 91.7352 51.0874 92.7459C51.3501 93.4396 51.5427 94.1578 51.6622 94.8898C51.7766 95.3163 51.9021 96.3576 52.2656 96.567C52.3505 96.3119 52.2752 96.0308 52.074 95.8524" stroke="black" stroke-width="0.600071" stroke-linecap="round" stroke-linejoin="round"/>
                <path d="M51.7905 89.6462L52.0767 89.5695C52.3344 89.9575 52.5266 90.6746 52.7844 91.0652C53.0729 91.8545 53.2909 92.6678 53.436 93.4955L54.1258 96.0683" stroke="black" stroke-width="0.600071" stroke-linecap="round" stroke-linejoin="round"/>
                <path d="M53.5178 89.7957C54.1285 89.7855 55.107 94.5789 55.337 95.4367L55.2986 95.2936" stroke="black" stroke-width="0.600071" stroke-linecap="round" stroke-linejoin="round"/>
                <path d="M55.2538 88.2579C55.7575 88.4291 55.7699 89.039 55.8849 89.4679L56.5364 91.8975C56.71 93.0219 56.9567 94.1337 57.2751 95.2259" stroke="black" stroke-width="0.600071" stroke-linecap="round"/>
                <path d="M56.8661 87.9785C57.0961 88.8364 57.5738 89.4743 57.8038 90.3321L58.0343 91.1917" stroke="black" stroke-width="0.600071" stroke-linecap="round" stroke-linejoin="round"/>
                <path d="M57.9372 89.6831C57.8988 89.5399 57.8606 89.3974 58.004 89.3589C58.5201 90.14 58.5406 91.3603 58.7705 92.2181" stroke="black" stroke-width="0.600071" stroke-linecap="round"/>
                <path d="M71.6444 90.4518L71.9305 90.3751C72.1723 90.7045 72.2816 91.1125 72.2371 91.5186C71.6957 91.2067 71.7872 90.4135 71.491 89.8797C71.2475 90.1986 71.1874 90.6208 71.3322 90.9946L70.7951 88.9914C70.9094 89.4179 70.9689 90.7838 71.5794 90.7729C72.1899 90.762 72.3308 88.4262 72.5409 88.0636C72.9909 89.1687 72.2852 89.9711 72.4101 91.0099C71.6844 90.5913 71.8735 89.0086 71.3957 88.3706C70.4323 88.7824 70.7594 91.1462 69.7952 91.5575C69.2791 90.7764 69.8391 90.0137 69.3254 89.232C68.7147 89.2423 68.658 90.177 68.5918 90.501C68.3988 91.1812 68.1054 91.829 67.7214 92.4231C67.1591 93.187 67.0725 92.2908 66.8809 91.5762C67.0208 91.6603 67.1154 91.8027 67.1386 91.9642C66.643 92.4033 65.5639 92.3864 64.9917 92.5398C64.3768 92.6005 63.8385 92.9783 63.5727 93.5354C65.6841 92.7764 67.6116 91.5809 69.2292 90.0271" stroke="black" stroke-width="0.600071" stroke-linecap="round" stroke-linejoin="round"/>
                <path d="M84.1601 65.0321L84.4462 64.9554C85.0006 65.879 85.1361 67.5282 85.4044 68.5292L85.9026 70.3874C85.8375 70.7922 85.8445 71.2053 85.9231 71.6076C86.0176 70.8163 86.1504 70.1675 86.2455 69.376C86.3783 68.7272 86.1867 68.0125 86.3196 67.3643C86.4391 66.7971 86.4897 66.2177 86.4703 65.6385C86.4615 64.4402 86.2959 63.2484 85.9776 62.0933L85.4403 60.0895C85.3121 60.5892 85.3461 61.1166 85.5374 61.5955C85.7674 62.4533 85.6728 63.2447 85.9028 64.1025C86.0172 64.529 86.1936 68.6213 85.5063 68.3458C84.7986 66.8501 84.9493 65.1242 84.9956 63.5797C84.9979 62.9288 84.9268 62.2798 84.7835 61.6449C84.6301 61.0728 84.7631 60.4246 84.6097 59.8525L85.2995 62.4253C85.8361 64.4267 85.0464 66.6302 84.6473 68.5761C84.3334 70.4938 83.9212 72.3943 83.4122 74.27C83.1768 75.0991 82.5737 75.7205 82.3358 76.5503C82.1262 76.9128 82.203 77.1991 81.9551 77.4184C81.8732 76.7023 81.9984 75.9775 82.3159 75.3299C82.8721 73.5368 83.5266 71.7755 84.2765 70.0541C84.7239 68.8618 85.2478 67.9547 85.6569 66.6193C85.877 66.0088 85.9641 65.3585 85.9125 64.7118C86.0698 65.5165 86.0837 66.3426 85.9534 67.1523C85.8695 68.5899 85.6892 70.0204 85.4136 71.434C85.1479 72.731 84.8816 74.0282 84.4725 75.3636C84.2371 76.1927 83.9307 77.3478 83.2917 77.8254C82.8522 77.3301 83.2328 76.462 83.3658 75.8138C83.7364 74.3352 83.8211 72.9339 84.0484 71.4938C84.2757 70.0536 84.6081 68.4325 84.836 66.9922C84.8107 66.1006 84.8802 65.2087 85.0435 64.3316C85.4169 65.151 85.1406 65.8376 84.9026 66.6674C84.7744 67.2501 84.6762 67.839 84.6086 68.4317C84.5154 69.073 84.3207 69.6954 84.0318 70.2758C83.8289 71.6531 83.5273 73.0142 83.1292 74.3485C82.9321 75.3208 82.5874 76.3327 82.3877 77.305C81.4903 77.3922 82.4697 73.6058 82.5364 73.2816C82.7082 72.7785 83.8304 68.9512 84.4793 69.0835C84.8625 70.5128 84.4918 71.9914 84.2261 73.2884C84.0433 74.8923 83.6961 76.4734 83.1899 78.0068" stroke="black" stroke-width="0.600071" stroke-linecap="round" stroke-linejoin="round"/>
                <path d="M77.8527 85.5698C78.1877 86.246 76.728 87.0971 76.3369 87.3555C75.5922 88.0123 74.8877 88.8163 74.0286 89.0466C73.1273 89.4661 72.1961 89.8181 71.2426 90.0999L69.0957 90.6755C71.0534 90.1679 72.9025 89.3088 74.5527 88.1401C75.5926 87.4068 76.4906 86.4912 77.2032 85.4377C77.4769 84.7511 78.213 83.4815 78.1647 82.7284C77.6691 83.1676 77.5357 83.8166 77.04 84.2557C76.1248 85.4206 75.353 86.547 74.397 87.5693C72.7767 89.5358 71.6903 91.2062 69.1523 92.0402C71.2126 90.5683 72.718 88.1729 74.3766 86.349C75.4345 85.1459 76.856 84.1523 77.4084 82.7784C77.0847 83.4542 76.6162 84.0507 76.0359 84.5256C74.8346 85.7671 74.0343 87.3603 72.7948 88.4593C71.4117 89.5961 69.7147 91.2769 67.8539 91.7758C68.7034 91.4704 69.5268 91.0968 70.316 90.6585C71.1366 90.285 71.7763 89.8098 72.5957 89.4341C73.273 89.099 73.9886 88.9072 74.6661 88.5727C75.6295 88.161 76.8514 88.1403 77.7005 87.302C78.0509 86.9018 78.2245 86.3955 78.5774 85.9946C78.8252 85.7747 78.9661 85.7369 79.0354 85.4147C78.3963 85.8923 78.1202 86.5796 77.5195 87.2003C76.5104 88.0966 75.4569 88.9416 74.3629 89.7322C73.9742 89.9898 69.9949 92.8951 69.7928 91.5707" stroke="black" stroke-width="0.600071" stroke-linecap="round" stroke-linejoin="round"/>
                <path d="M45.6725 15.9016L45.6341 15.7585C45.0719 16.5224 45.2072 18.171 45.1894 19.2487C45.1368 20.6519 45.3059 22.0544 45.6903 23.4048C45.3938 22.2024 45.1694 20.9834 45.0182 19.7543C44.855 18.5723 44.9773 17.3138 44.6707 16.1702C45.0015 17.3725 45.1799 18.6116 45.2018 19.8585C45.106 21.0135 45.3113 22.1734 45.7978 23.2251C46.0073 22.8627 45.7112 22.3289 45.7389 21.8617C45.6295 20.9776 45.4467 20.1042 45.1925 19.2505C45.1159 18.9647 44.7227 16.9249 45.0064 16.8489C45.2263 17.0962 45.198 17.5635 45.2746 17.8492L45.9644 20.4221C46.3094 21.7088 46.3298 22.929 46.6747 24.2151C46.3681 23.0716 46.386 21.9945 46.1176 20.9935L45.5805 18.9903C45.4271 18.4183 45.0262 18.0667 44.9112 17.6378C45.3231 18.9644 45.5871 20.3325 45.6982 21.7172L45.846 23.9756C46.0357 24.5037 46.0824 25.0726 45.9814 25.6248C45.3682 23.3377 44.4689 21.1273 43.8557 18.8403C44.1309 20.1528 44.3338 21.4795 44.4634 22.8143C44.5882 23.8531 44.4659 25.1116 44.6959 25.9694C44.41 24.617 44.0518 23.2808 43.6227 21.9667L42.8945 19.2508C42.7423 18.7761 42.6615 18.2815 42.6547 17.783C43.2474 18.8499 43.3445 20.3559 43.6511 21.4994C43.9881 22.8216 44.096 24.1919 43.9703 25.5508C43.4925 24.9129 43.3571 23.2637 43.1271 22.4059L42.6289 20.5477C42.5145 20.1213 42.6468 19.4706 42.389 19.08C42.5034 19.5065 42.8006 20.042 42.9156 20.4709C43.2425 21.4033 43.4987 22.3591 43.6822 23.33" stroke="black" stroke-width="0.600071" stroke-linecap="round" stroke-linejoin="round"/>
                </g>
         </svg>