            <svg width="82" height="112" viewBox="0 0 82 112" fill="none" xmlns="http://www.w3.org/2000/svg">
                <g opacity="0.4">
                <g opacity="0.3">
                <path d="M10.1881 26.0249L9.65217 24.1559C9.62058 23.8797 9.67279 23.6005 9.802 23.3544C9.89861 22.9837 9.87485 22.5919 9.73415 22.2357C10.0557 21.1549 10.2453 20.0392 10.2988 18.9129C10.3256 17.8392 10.7535 16.8144 11.4984 16.0405C12.3493 15.0379 13.3503 14.1185 14.2006 13.1161" stroke="black" stroke-width="0.8"/>
                <path d="M14.518 12.899C15.0356 12.4978 15.3197 13.0487 15.6538 13.3319C16.0551 13.8492 15.9553 14.3835 15.6045 14.4841C14.7202 15.3701 12.9669 14.9876 12.6008 16.3568C10.9026 21.9007 12.3439 27.8092 15.6543 32.2976C16.3066 33.2487 17.7591 33.464 18.8614 33.7803C21.0491 33.9116 23.2536 34.5437 24.4573 36.0952C25.1096 37.0462 26.129 38.3971 25.6616 39.4134C24.9948 40.616 23.4923 40.6679 23.0926 41.92C22.8562 42.9511 22.5561 43.9667 22.1941 44.9607C21.694 45.8627 20.4913 45.1962 19.5565 45.4642" stroke="black" stroke-width="0.8"/>
                <path d="M14.4176 12.5489C14.1004 12.7665 13.7661 12.4828 13.4158 12.5833" stroke="black" stroke-width="0.8"/>
                <path d="M12.8983 12.9845C13.3657 12.8505 12.9827 13.7189 12.9326 13.9861" stroke="black" stroke-width="0.8"/>
                <path d="M13.3823 12.4662C13.5163 12.9335 12.9987 13.3347 13.0993 13.6854" stroke="black" stroke-width="0.8"/>
                <path d="M9.58588 24.8068L9.95442 26.092C10.0672 26.4519 10.249 26.7864 10.4897 27.0767C10.6237 27.5439 10.9579 27.8277 11.0919 28.2949L11.2595 28.8793C11.3265 29.1129 11.4766 29.1966 11.6607 29.3967C12.0954 30.0306 12.1633 31.1492 12.3977 31.9667C12.5987 32.6676 12.6665 33.7862 13.1012 34.4201L13.2178 34.3867" stroke="black" stroke-width="0.8"/>
                <path d="M9.70386 25.6582C9.80856 26.0954 9.97193 26.5165 10.1895 26.9099C10.4038 27.4367 10.561 27.985 10.6585 28.5453L10.8261 29.1297C10.8931 29.3634 11.0438 29.4469 11.2273 29.6471C11.4194 30.0957 11.5545 30.5666 11.6293 31.0489L11.9978 32.3342C12.0648 32.5678 12.282 32.8851 12.1988 33.0351C12.2658 33.2687 12.1487 33.3023 12.1327 33.6865C12.2559 34.1394 12.262 34.6163 12.1504 35.0723C12.1344 35.4565 11.951 36.1409 12.1681 36.4582" stroke="black" stroke-width="0.8"/>
                <path d="M10.0033 27.595L10.1199 27.5616C10.5882 28.3126 10.6559 29.4307 10.8904 30.2487C11.0244 30.716 10.8913 31.1337 11.0253 31.601C11.0898 32.0603 11.0958 32.526 11.043 32.9868C11.0103 33.7548 11.1277 34.6063 10.8277 35.3242C10.6445 36.0091 10.3445 36.727 10.1618 37.4118C10.0985 37.5308 10.0924 37.6721 10.1453 37.7961L9.895 38.2474C9.84487 38.5146 9.71175 38.9324 9.66217 39.1995C9.51233 40.001 9.36305 40.8023 9.17979 41.4873C9.04667 41.905 9.29723 42.3389 9.19752 42.8731C9.12858 43.333 9.13456 43.801 9.21525 44.259C9.33383 44.9972 9.3805 45.7451 9.35461 46.4923C10.0061 46.5583 10.8739 46.0566 11.4579 45.8892C12.1299 45.7308 12.8313 45.7474 13.495 45.9374C14.0944 45.9838 14.6846 46.1125 15.2488 46.3198C15.8168 46.5365 16.702 46.5355 17.1863 46.9024C17.3034 46.8688 17.27 46.7522 17.353 46.6017C17.4481 46.3773 17.6195 46.1937 17.8369 46.0834C17.9894 45.9375 18.1806 45.8386 18.3878 45.7987C18.6215 45.7317 18.5545 45.498 18.9054 45.3974" stroke="black" stroke-width="0.8"/>
                <path d="M17.4524 46.0663L17.4859 46.1834C17.3608 45.8289 17.1801 45.4966 16.9507 45.1988L16.7831 44.6144C16.7161 44.3808 16.4154 44.2142 16.3484 43.9805L16.0135 42.8123C15.918 42.5711 15.7695 42.3544 15.5788 42.1784L14.0379 36.8048" stroke="black" stroke-width="0.8"/>
                <path d="M16.7518 46.2673L16.6352 46.3007C16.5458 46.0145 16.3846 45.756 16.167 45.5497C15.9227 45.1666 15.7208 44.7581 15.5648 44.3314C15.0965 43.5804 15.0958 42.696 14.8612 41.878C14.7607 41.5273 14.4266 41.2441 14.326 40.8934L13.2878 37.2728" stroke="black" stroke-width="0.8"/>
                <path d="M16.4601 37.7542C16.9104 38.1798 17.3037 38.662 17.6302 39.1886C17.8788 39.5933 18.1583 39.9781 18.4661 40.3398C18.6756 40.8399 18.9393 41.3155 19.2525 41.7581C19.4696 42.0754 19.57 42.4256 19.7877 42.7428C19.9026 43.0592 20.0724 43.3529 20.2894 43.6103C20.4043 43.9268 20.5741 44.2204 20.7911 44.4778L20.9243 44.9423C20.9578 45.0594 21.1915 44.9924 21.142 45.2595" stroke="black" stroke-width="0.8"/>
                <path d="M21.1419 44.3772C20.8774 43.3093 20.4957 42.2739 20.0037 41.2899C19.719 40.7391 19.3179 40.2223 19.0338 39.6714C18.7496 39.1204 18.2314 38.6372 17.9467 38.0864" stroke="black" stroke-width="0.8"/>
                <path d="M17.6605 35.766C17.8606 35.5819 18.3951 35.6821 18.6622 35.7316C19.0265 35.7442 19.3868 35.8113 19.731 35.9309C20.1196 36.0479 20.4786 36.2468 20.7838 36.5143C21.1935 36.7305 21.6247 36.9036 22.0702 37.0306C22.613 37.2451 23.0991 37.5817 23.4907 38.0143C24.0091 38.498 24.3936 39.3992 25.1121 39.6988" stroke="black" stroke-width="0.8"/>
                <path d="M24.7429 38.4132C24.6089 37.9459 24.0075 37.6127 23.6732 37.329C23.2008 36.8466 22.6923 36.4007 22.1524 35.9952C21.996 35.7793 21.7728 35.6211 21.5174 35.5448L20.7158 35.3951C20.4151 35.2285 19.7801 34.7781 19.3463 35.0293" stroke="black" stroke-width="0.8"/>
                <path d="M10.5866 41.9667C10.6035 42.4676 10.2367 42.9523 10.137 43.4866C10.0038 43.9044 9.82043 44.5888 10.0381 44.9059" stroke="black" stroke-width="0.8"/>
                <path d="M9.66927 42.7355C9.76702 42.9672 9.79631 43.222 9.75368 43.4698C9.73713 43.8542 9.90454 44.438 9.58785 44.6555" stroke="black" stroke-width="0.8"/>
                <path d="M25.1093 37.9292C25.2622 37.8981 25.4204 37.9484 25.5271 38.0622C27.0984 40.014 27.5347 42.4174 28.4383 44.6867C30.353 46.6729 31.7787 49.0777 32.6024 51.7105C32.8033 52.4114 33.5554 52.8282 33.7564 53.5291C34.0244 54.4636 34.0587 55.4652 34.7606 56.1492C36.1212 57.9623 37.2764 59.9206 38.2053 61.9883C38.841 63.3231 38.8091 64.976 39.4448 66.3108C40.3316 68.0793 40.4833 69.9325 41.2529 71.7345L43.4119 77.0577C43.5975 77.526 43.8512 77.9645 44.1647 78.3589C45.6354 79.9599 46.6053 81.5785 48.0761 83.1795C49.3166 84.7682 50.8199 86.133 52.521 87.2147C53.3896 87.598 54.2917 88.0979 55.2773 88.4471C56.079 88.5968 56.7639 88.7794 57.5655 88.9291C59.3707 89.1081 61.1898 89.095 62.9922 88.8901C65.3962 88.4536 67.7992 87.1321 70.3038 87.0464C70.7793 87.1685 71.2663 87.2408 71.7569 87.2621C73.8949 87.7012 75.9334 88.5311 77.77 89.7102C79.5245 90.977 80.4443 92.8627 81.0131 94.8461C81.0801 95.0798 80.7628 95.2975 80.4796 95.6315" stroke="black" stroke-width="0.8"/>
                <path d="M10.0891 46.4079C10.0564 47.1758 9.75658 47.8942 9.72387 48.6621C10.0261 50.5982 11.3469 52.1161 12.2331 53.8848C13.4356 56.6852 14.4698 59.555 15.33 62.4788C15.7374 63.2212 16.1955 63.9346 16.701 64.6141C17.2528 65.2144 18.0043 65.6313 18.3894 66.5323C18.557 67.1167 18.5243 67.8846 18.9254 68.4014C19.9788 69.8692 20.5644 71.4713 21.4177 73.1232C22.1874 74.9253 22.6899 76.6779 23.343 78.5134C24.2298 80.2818 25.6671 81.7664 26.3196 83.602C26.6881 84.8873 27.574 85.7708 28.3422 86.6856C29.5792 88.3537 30.8498 90.1388 31.4192 92.1245C31.5896 92.5222 31.9071 92.8389 32.3053 93.0085C32.7262 93.1925 33.1289 93.4156 33.508 93.675C37.6531 98.4286 43.9652 99.2732 49.7931 99.7516L50.4942 99.5506C51.3628 99.9339 52.2976 99.6659 53.2658 99.5143C57.5402 99.4268 61.8632 99.9571 65.7543 98.0828C68.8725 96.5663 72.0902 95.2634 75.3851 94.1831C75.6613 94.1515 75.9406 94.2037 76.1868 94.3328" stroke="black" stroke-width="0.8"/>
                <path d="M75.6182 94.118L75.5847 94.0015C75.9917 93.7944 76.4491 93.707 76.9038 93.7494C77.1709 93.7989 77.288 93.7653 77.4717 93.9661C77.6554 94.1669 77.806 94.2498 78.0397 94.1828C78.0731 94.2993 78.2238 94.3828 78.3739 94.4665C78.5581 94.6666 78.5079 94.9338 78.5749 95.1674C78.6755 95.5182 78.6924 96.019 79.1102 96.1521C79.8623 96.5688 80.1447 95.3497 80.2444 94.8154" stroke="black" stroke-width="0.8"/>
                <path d="M25.0653 44.3897C24.798 44.3397 24.8812 44.1897 24.6139 44.1396C24.4632 44.0561 24.2631 44.2402 24.0294 44.3072C23.6786 44.4078 23.4449 44.4748 23.3117 44.8926C23.2622 45.1596 23.3292 45.3933 23.0119 45.611C22.6947 45.8286 22.0436 45.7619 21.7263 45.9796C21.1754 46.2643 21.2262 46.8815 20.8594 47.3663C20.6591 47.5498 20.6257 47.4333 20.5756 47.7005L20.7427 48.2832C21.0273 48.834 21.0769 48.5669 21.5282 48.8165C22.1295 49.1498 22.2809 50.1177 22.4819 50.8187L22.7835 51.8703C22.9175 52.3376 23.2182 52.5042 23.3187 52.8549C23.4012 53.215 23.5425 53.559 23.7368 53.8731C23.9545 54.1903 24.2552 54.3569 24.4722 54.6737L25.1246 55.6247C25.3417 55.942 25.793 56.1916 25.9269 56.6589C26.1446 56.976 26.1279 57.3598 26.4622 57.6435C26.6855 57.9084 26.8922 58.1869 27.081 58.4774C27.5492 59.2284 28.0173 59.9789 28.452 60.6128C28.8533 61.1301 29.3381 61.4968 29.7392 62.0136C30.0206 62.7745 30.2445 63.5555 30.4091 64.35C30.5097 64.7007 30.8438 64.9839 30.9444 65.3346L31.2459 66.3862C31.3587 66.7461 31.5405 67.0805 31.7812 67.3709L31.9479 67.9525C32.0149 68.1861 32.3156 68.3527 32.3826 68.5864C32.4584 68.9485 32.6001 69.2937 32.8007 69.6046C32.959 69.9359 33.0609 70.2913 33.1023 70.6562C33.2029 71.0069 33.47 71.0565 33.604 71.5237L34.1735 73.5099C34.1259 73.8432 34.1375 74.1823 34.2078 74.5115L34.5101 75.5659C34.5771 75.7995 34.6942 75.7659 34.7278 75.883C35.0163 76.3798 35.2518 76.9055 35.4305 77.4515C35.7113 78.103 36.0588 78.7236 36.4674 79.3036L37.2202 80.6049C37.3793 80.9149 37.5883 81.1967 37.839 81.4388C38.0231 81.6389 38.1732 81.7225 38.3574 81.9226C38.6809 82.2675 39.027 82.5906 39.3934 82.8897C39.7611 83.29 40.9806 83.5727 41.148 84.1565" stroke="black" stroke-width="0.8"/>
                <path d="M25.0651 44.3891C24.9981 44.1555 24.8306 43.5711 25.215 43.5876C25.3321 43.554 25.7334 44.0714 25.7668 44.1879C25.925 44.5193 26.027 44.8747 26.0683 45.2395C26.1017 45.3561 26.2524 45.4396 26.286 45.5567C26.353 45.7903 26.3029 46.0575 26.487 46.2576C26.7047 46.5747 27.0054 46.7414 27.1058 47.0915C27.2062 47.4417 27.3905 47.6423 27.4909 47.9925C27.842 48.7771 28.3107 49.5274 28.6282 50.1948C28.7865 50.5262 28.8884 50.8816 28.9298 51.2465C29.0304 51.5972 29.3645 51.8804 29.465 52.2311C29.5345 52.6078 29.7219 52.9526 30.0003 53.2157C30.1838 53.416 30.4685 53.9667 30.6526 54.1668C31.2876 54.6171 31.7884 54.5997 32.1401 55.3841C32.4215 56.145 32.6455 56.926 32.81 57.7204L33.1116 58.7721C33.2122 59.1228 33.5463 59.406 33.6468 59.7567C33.8478 60.4576 34.1158 61.3922 34.8009 61.5753C35.0886 61.6314 35.3689 61.7207 35.636 61.8415C35.9116 62.0527 36.0921 62.3648 36.1376 62.7091C36.1545 63.2099 35.8712 63.544 35.8547 63.9283C35.8786 64.3773 35.9632 64.8209 36.1061 65.2472L37.111 68.7517C37.268 69.2208 37.4814 69.669 37.7467 70.0865L38.7174 73.4717C39.0063 73.8346 39.2481 74.2327 39.4367 74.6564C39.5006 75.0996 39.6246 75.532 39.8053 75.9417C39.9105 76.1345 40.046 76.3092 40.2065 76.4591C40.3906 76.6591 40.4576 76.8927 40.6412 77.0929C40.9929 77.8774 42.2452 78.2768 42.5967 79.0607L42.7643 79.645C42.8313 79.8787 42.982 79.9622 43.049 80.1958C43.2409 80.6445 43.3759 81.1154 43.451 81.5976C43.585 82.0649 44.337 82.4817 44.2373 83.016C44.2208 83.4003 43.3695 83.5176 43.1024 83.4681C43.6034 83.4512 43.6208 83.9519 43.7212 84.3021" stroke="black" stroke-width="0.8"/>
                <path d="M40.9961 84.0709C41.5806 83.9033 41.8143 83.8363 42.0984 84.3872C42.2828 84.8535 42.3408 85.3602 42.2667 85.8561C42.3417 86.3383 42.4768 86.8092 42.6687 87.2579C42.696 87.4691 42.7965 87.6641 42.9528 87.8088C43.2535 87.9755 43.3372 87.8253 43.5373 87.6412" stroke="black" stroke-width="0.8"/>
                <path d="M43.6017 85.2198C43.8027 85.9207 43.8531 86.5386 44.6713 86.304C45.2559 86.1364 45.9395 85.4347 46.6246 85.6178C47.4263 85.7675 47.344 86.8025 47.3608 87.3033C47.4278 87.537 47.3443 87.6877 47.4113 87.9213L47.5788 88.5057C47.6794 88.8564 47.3956 89.1906 47.7297 89.4738C47.9298 89.2897 48.2136 88.9555 48.4139 88.7719C48.673 88.6303 48.9239 88.4739 49.1651 88.3036C49.7164 88.9041 48.7656 89.5563 49.2003 90.1902C49.4004 90.0061 49.7512 89.9055 49.9515 89.722C50.2687 89.5043 50.4354 89.2036 50.603 89.788C50.7036 90.1387 50.2873 91.7752 50.7051 91.9082C50.8558 91.9917 51.1391 91.6576 51.3728 91.5906C51.6065 91.5236 52.1574 91.2389 52.341 91.4391C52.5581 91.7564 52.2749 92.0905 52.8588 91.9231C52.976 91.8895 53.059 91.7389 53.1427 91.5888L53.7272 91.4212C54.0453 92.0885 54.346 92.2552 55.1636 92.0207C55.8858 91.7504 56.6283 91.5375 57.384 91.384C57.7343 91.2836 57.7678 91.4007 58.0691 91.5671C58.3526 91.6844 58.6711 91.684 58.9543 91.5662C60.0037 91.4336 61.0344 91.1806 62.0259 90.8121" stroke="black" stroke-width="0.8"/>
                <path d="M44.2221 87.8232L44.105 87.8568C44.0952 88.1861 44.1463 88.5143 44.2558 88.8249C44.3027 89.0801 44.2915 89.3426 44.2231 89.5929C44.5936 89.4234 44.9875 89.3105 45.3916 89.2578C45.6253 89.1908 45.5918 89.0742 45.776 89.2743L45.9435 89.8587C46.0441 90.2094 45.7603 90.5436 45.8607 90.8938C45.9133 91.2978 46.0262 91.6915 46.1957 92.062C46.5633 92.4622 46.7467 91.7778 47.1974 92.0276C47.3481 92.1111 47.432 92.8456 47.499 93.0792C47.633 93.5465 47.5834 93.8136 48.0508 93.6795C48.5517 93.6626 48.952 93.2944 49.4194 93.1604C49.6371 93.4775 49.5869 93.7447 49.8045 94.0613C49.9886 94.2614 49.8715 94.295 50.1387 94.345C50.2894 94.4286 50.7233 94.1774 50.957 94.1104C51.3666 93.9294 51.7992 93.8054 52.2426 93.7418C52.5098 93.7919 52.4602 94.0589 52.7274 94.1085C52.9945 94.158 53.3119 93.9409 53.4284 93.9074C53.8717 93.8436 54.3043 93.7195 54.714 93.5388C55.0419 93.2837 55.4355 93.1269 55.8489 93.0866C56.1517 93.1492 56.4589 93.1881 56.7677 93.2028L58.0533 92.8341C58.1704 92.8005 58.2534 92.65 58.3706 92.6164L60.2401 92.0803C60.5977 91.9286 60.9211 91.7068 61.1915 91.428C61.6011 91.247 62.0337 91.1229 62.4771 91.0593C62.8064 90.989 63.1455 90.9774 63.4788 91.0249C63.8886 90.8442 64.3211 90.7202 64.7644 90.6563C64.9981 90.5893 65.1487 90.6722 65.4159 90.7223L66.1165 90.5214C66.5009 90.5379 66.9683 90.4039 67.1852 90.7207" stroke="black" stroke-width="0.8"/>
                <path d="M69.654 90.5185C69.9701 90.3746 70.3305 90.3623 70.6557 90.4841C71.0735 90.6171 71.7245 90.6833 72.0083 90.3491C72.4923 89.8307 71.7578 89.9152 71.5235 89.9824L70.2379 90.351" stroke="black" stroke-width="0.8"/>
                <path d="M14.0905 58.1562C14.8251 58.0723 15.6106 58.6056 16.1784 58.8218C16.9149 59.0229 17.6707 59.1452 18.4331 59.1866C19.1496 59.2499 19.87 59.2548 20.5874 59.2013C21.36 59.1331 22.1253 58.9983 22.8747 58.7983" stroke="black" stroke-width="0.8"/>
                <path d="M14.7269 60.3755C15.5451 60.1408 16.3291 59.7893 17.1644 60.0561C17.3151 60.1396 17.4651 60.2227 17.5822 60.1891C17.7888 60.2319 18.0033 60.2141 18.2001 60.1381C18.3167 60.1046 18.4674 60.1881 18.6179 60.2711L19.319 60.0701C19.4356 60.0366 19.5861 60.1196 19.7027 60.0862L20.2872 59.9186C20.6614 59.9553 21.0391 59.9323 21.4061 59.8506L23.7431 59.1805" stroke="black" stroke-width="0.8"/>
                <path d="M19.2172 58.8351L21.7878 58.098" stroke="black" stroke-width="0.8"/>
                <path d="M34.0242 54.463C34.3759 55.2474 33.5076 55.7493 33.1406 56.2335" stroke="black" stroke-width="0.8"/>
                <path d="M34.6259 55.6814C34.944 56.3488 33.8594 57.4183 33.459 57.786" stroke="black" stroke-width="0.8"/>
                <path d="M29.8605 48.3244C29.9776 48.2909 30.011 48.4074 29.8605 48.3244C30.0072 48.4986 30.0275 48.7467 29.9109 48.9424C29.7442 49.243 29.3934 49.3436 29.494 49.6944" stroke="black" stroke-width="0.8"/>
                <path d="M29.8605 48.3245C30.5624 49.0085 30.6964 49.4757 30.1963 50.3777" stroke="black" stroke-width="0.8"/>
                <path d="M23.3008 69.5485C23.6852 69.565 24.1025 69.6982 24.4867 69.7141C24.9875 69.6966 25.5219 69.7962 26.0229 69.7793L27.3085 69.4107C27.6593 69.3101 28.5105 69.1927 28.6437 68.775" stroke="black" stroke-width="0.8"/>
                <path d="M27.7403 67.3907C27.273 67.5248 27.0227 67.9761 26.5553 68.1101L25.8542 68.3111C25.5377 68.426 25.2439 68.5958 24.9864 68.8128C24.3516 68.973 23.7033 69.0742 23.0499 69.1153C22.5211 69.1569 21.9995 69.2639 21.497 69.4338" stroke="black" stroke-width="0.8"/>
                <path d="M25.2717 70.2476L23.9861 70.6162C23.5187 70.7503 23.2349 71.0845 22.7675 71.2185" stroke="black" stroke-width="0.8"/>
                <path d="M26.8414 70.4299L24.8547 70.9995" stroke="black" stroke-width="0.8"/>
                <path d="M24.6999 65.6074L24.7335 65.7245C24.3826 65.8251 24.3331 66.0922 23.9822 66.1928L22.6972 66.5612" stroke="black" stroke-width="0.8"/>
                <path d="M39.2278 66.8781C38.5603 67.1962 38.6441 67.9307 37.7929 68.0481" stroke="black" stroke-width="0.8"/>
                <path d="M39.4288 67.579C39.3458 67.7295 39.2621 67.8797 39.145 67.9132C38.9448 68.0973 38.7781 68.398 38.5779 68.5815C38.3776 68.7651 38.211 69.0663 37.9773 69.1333" stroke="black" stroke-width="0.8"/>
                <path d="M38.5791 69.4658C38.3289 69.9172 38.0456 70.2512 37.7952 70.702" stroke="black" stroke-width="0.8"/>
                <path d="M32.3812 84.8974C32.9993 84.8469 33.6503 84.9131 34.1511 84.8956C34.9457 84.731 35.7269 84.507 36.488 84.2255C37.5399 83.9239 38.742 83.7059 39.4255 83.0036" stroke="black" stroke-width="0.8"/>
                <path d="M38.3067 83.0721C37.9559 83.1727 37.8729 83.3232 37.6392 83.3902C37.4391 83.5744 37.1718 83.5243 36.9717 83.7084L37.0051 83.8249" stroke="black" stroke-width="0.8"/>
                <path d="M37.3718 83.3396L35.9696 83.7417" stroke="black" stroke-width="0.8"/>
                <path d="M41.895 81.0318C42.1287 80.9648 42.2117 80.8143 42.4459 80.7471C42.7626 80.5296 43.0305 80.5795 43.3471 80.362C43.6638 80.1444 43.8473 79.46 44.1645 79.2423" stroke="black" stroke-width="0.8"/>
                <path d="M44.1319 80.0109C44.1752 80.203 44.0676 80.3971 43.8817 80.4622C43.5991 80.7546 43.3528 81.0799 43.1479 81.4312" stroke="black" stroke-width="0.8"/>
                <path d="M26.2426 54.6717C26.1591 54.8224 26.0759 54.9723 26.2261 55.056C26.7161 54.9555 27.1743 54.7373 27.5612 54.4203C28.0788 54.019 28.8628 53.6675 29.1962 53.0662" stroke="black" stroke-width="0.8"/>
                <path d="M32.1095 61.46C32.3607 61.8937 31.8431 62.2949 31.3758 62.4289" stroke="black" stroke-width="0.8"/>
                <path d="M44.0475 98.2406C44.8422 98.0759 45.6233 97.8519 46.3845 97.5705C47.1357 97.1022 47.5187 96.2338 47.9692 95.599C48.3563 95.1766 48.5599 94.6179 48.5354 94.0456" stroke="black" stroke-width="0.8"/>
                <path d="M45.468 99.2242C45.6347 98.9236 45.8348 98.7394 46.0015 98.4388C46.602 97.887 47.2361 97.4524 47.8368 96.9012C48.0035 96.6005 49.3552 95.5805 49.1377 95.2639" stroke="black" stroke-width="0.8"/>
                <path d="M45.5183 99.8416C46.0192 99.8247 46.7864 98.9723 47.0703 98.6381C47.5765 98.1885 48.0247 97.6777 48.4046 97.1173C48.5713 96.8167 49.2054 96.382 49.0714 95.9148" stroke="black" stroke-width="0.8"/>
                <path d="M43.2125 97.9743C43.3792 97.6737 43.6128 97.6067 43.813 97.4226C44.122 97.1108 44.4065 96.7756 44.6639 96.42C45.0026 95.9426 45.3821 95.4954 45.7981 95.0834C45.3141 95.6018 44.7972 96.0029 44.3131 96.5206C43.8069 97.1781 43.0965 97.6486 42.2937 97.8582" stroke="black" stroke-width="0.8"/>
                <path d="M43.66 94.6852C43.6099 94.9524 42.9758 95.3871 42.7757 95.5712C42.448 95.9075 42.0402 96.155 41.5906 96.2906" stroke="black" stroke-width="0.8"/>
                <path d="M57.7745 100.246C58.4756 100.045 58.9766 100.028 59.5771 99.4763C60.0462 99.0784 60.4219 98.582 60.6777 98.0226C61.1563 97.3012 61.5269 96.5136 61.7778 95.685C62.1613 94.8165 62.5777 94.0647 62.1931 93.1636" stroke="black" stroke-width="0.8"/>
                <path d="M60.858 93.7993C61.1091 94.233 60.9418 94.5338 60.8087 94.9515C60.7346 95.6032 60.5781 96.2428 60.3429 96.855C59.9874 97.4175 59.5916 97.9536 59.1585 98.4588C58.6842 98.795 58.243 99.1755 57.8408 99.5952" stroke="black" stroke-width="0.8"/>
                <path d="M58.5093 100.163C58.2732 100.007 57.9842 99.9529 57.7077 100.013C57.2865 100 56.872 99.9042 56.4882 99.7303C56.1087 99.6563 55.7202 99.6398 55.3357 99.6811C54.9849 99.7817 54.8013 99.5815 54.4505 99.6821C55.1667 99.4794 55.9109 99.3942 56.6543 99.4298C56.9632 99.4445 57.2704 99.4833 57.5731 99.5459C57.9024 99.5556 58.2307 99.5044 58.5415 99.3949C58.8521 99.2853 59.1804 99.2339 59.5097 99.2434C59.8746 99.202 60.2301 99.1001 60.5616 98.9418L61.7301 98.6067C62.1974 98.4727 62.5978 98.1051 63.0652 97.971" stroke="black" stroke-width="0.8"/>
                <path d="M57.4708 96.5411C57.7388 97.4756 56.3535 98.3785 56.2378 99.297" stroke="black" stroke-width="0.8"/>
                <path d="M55.4179 97.7615C55.1823 98.4608 54.7404 99.0724 54.1505 99.5159" stroke="black" stroke-width="0.8"/>
                <path d="M65.3124 89.4878C65.5491 90.0927 65.7286 90.7185 65.8484 91.3569C65.8653 91.8577 65.6658 92.9263 65.1985 93.0603" stroke="black" stroke-width="0.8"/>
                <path d="M66.3478 89.5705C66.8653 89.1692 66.8662 90.0542 66.9666 90.4044C67.1727 91.127 67.126 91.8982 66.8342 92.5907" stroke="black" stroke-width="0.8"/>
                <path d="M68.3339 89.0009L68.451 88.9673C68.7357 89.5181 69.0037 90.4527 68.6698 91.0541" stroke="black" stroke-width="0.8"/>
                <path d="M70.3213 89.3158L70.7903 90.9513" stroke="black" stroke-width="0.8"/>
                <path d="M19.1726 46.3317L15.1998 47.4708" stroke="black" stroke-width="0.8"/>
                <path d="M20.208 46.4143C20.0413 46.715 19.4568 46.8826 19.2566 47.0667C18.839 47.3319 18.3907 47.5454 17.9215 47.7024L15.2343 48.4729" stroke="black" stroke-width="0.8"/>
                <path d="M20.2423 47.4159C20.3602 48.2673 18.1894 48.637 17.6055 48.8044C16.9044 49.0055 16.2369 49.3236 15.5182 49.0234C14.8881 48.7805 14.2404 48.5857 13.5808 48.4408" stroke="black" stroke-width="0.8"/>
                <path d="M20.8779 48.7507C18.8912 49.3204 16.9385 50.0065 14.8346 49.7251" stroke="black" stroke-width="0.8"/>
                <path d="M21.3636 50.0023L21.3972 50.1194C20.7572 50.4925 20.0343 50.6998 19.2939 50.7225C18.5592 50.8065 17.7076 50.9245 16.973 51.0085" stroke="black" stroke-width="0.8"/>
                <path d="M20.9465 50.7538C20.8468 51.2881 19.6113 51.3895 19.2605 51.4901L17.9749 51.8588C17.6445 51.7881 17.2997 51.8419 17.0065 52.0097" stroke="black" stroke-width="0.8"/>
                <path d="M21.5486 51.9715C21.2983 52.4228 20.4471 52.5402 19.9797 52.6742C19.2786 52.8752 18.5935 52.6921 17.8924 52.8931" stroke="black" stroke-width="0.8"/>
                <path d="M21.8501 53.0232C21.9011 53.6409 20.5485 53.7759 20.1977 53.8765C19.3795 54.1112 18.3107 53.9119 17.4595 54.0293" stroke="black" stroke-width="0.8"/>
                <path d="M22.4689 53.8571C22.5863 54.7087 18.5631 55.2299 17.9786 55.3976" stroke="black" stroke-width="0.8"/>
                <path d="M23.5385 54.9414C23.589 55.5593 21.8861 55.7948 21.4187 55.9288L17.4459 57.068" stroke="black" stroke-width="0.8"/>
                <path d="M24.0731 55.9256C24.3912 56.5929 23.2062 57.3123 22.8058 57.6799C21.8049 58.5993 20.0183 58.9849 18.6662 59.1197" stroke="black" stroke-width="0.8"/>
                <path d="M25.1768 57.1267C25.294 57.0932 25.4105 57.0597 25.4441 57.1768C24.877 57.8451 23.5914 58.2138 22.8073 58.5653C21.4387 59.0845 19.8859 59.403 18.4837 59.8051" stroke="black" stroke-width="0.8"/>
                <path d="M25.6427 57.8779C25.9603 58.5453 23.7573 59.6827 23.3235 59.9338C21.7281 60.7705 19.9785 61.2722 18.1822 61.4081" stroke="black" stroke-width="0.8"/>
                <path d="M26.6476 58.7278C26.8647 59.0451 26.3812 59.5627 26.181 59.7469C25.6412 60.2275 25.0268 60.6173 24.3619 60.9009C23.4941 61.4026 22.5258 61.5535 21.5075 61.9722L19.9882 62.4079C19.4068 62.388 18.825 62.4276 18.2517 62.5262" stroke="black" stroke-width="0.8"/>
                <path d="M26.5647 59.7629L26.6819 59.7293C27.0831 60.2466 24.6465 61.451 24.2956 61.5516L19.4886 63.3096" stroke="black" stroke-width="0.8"/>
                <path d="M27.9523 61.514C28.3034 62.2985 25.6832 63.3027 25.2492 63.5533C24.5424 63.8646 23.811 64.1167 23.0624 64.3071C22.2442 64.5417 21.4602 64.8932 20.6585 64.7435" stroke="black" stroke-width="0.8"/>
                <path d="M28.5546 62.7322C28.7722 63.0493 28.5386 63.1163 28.3377 63.3C27.8553 63.625 27.3408 63.8997 26.8024 64.1198C25.7435 64.7433 24.5952 65.2006 23.3976 65.4757" stroke="black" stroke-width="0.8"/>
                <path d="M28.9908 65.1356C29.0412 65.7535 27.1717 66.2896 26.7043 66.4236C26.2369 66.5577 25.0014 66.6591 24.751 67.1098" stroke="black" stroke-width="0.8"/>
                <path d="M29.4925 66.0031C29.6265 66.4704 28.0242 67.0566 27.7068 67.2737C26.8148 67.6713 25.9008 68.0178 24.9694 68.3115" stroke="black" stroke-width="0.8"/>
                <path d="M29.1258 67.3725C28.104 67.8798 27.0292 68.2728 25.9211 68.5443" stroke="black" stroke-width="0.8"/>
                <path d="M29.6106 67.7391C29.5779 68.507 26.7897 68.9276 26.0886 69.1286" stroke="black" stroke-width="0.8"/>
                <path d="M30.0293 68.7573C29.6525 69.1089 29.225 69.4019 28.7611 69.6266L27.4595 70.3794" stroke="black" stroke-width="0.8"/>
                <path d="M30.3307 69.8083C30.4145 70.5428 28.8784 70.4776 28.6621 71.0453" stroke="black" stroke-width="0.8"/>
                <path d="M31.567 70.5919C31.4499 70.6255 31.3669 70.776 31.2832 70.9261C31.0419 71.0964 30.7911 71.2528 30.532 71.3944C30.1567 71.5117 29.8253 71.739 29.5806 72.0468" stroke="black" stroke-width="0.8"/>
                <path d="M32.4189 71.3589C32.7371 72.0263 30.3661 72.58 30.4505 73.3143" stroke="black" stroke-width="0.8"/>
                <path d="M33.489 72.4425C33.5058 72.9433 32.4881 73.3619 32.0541 73.6124C31.3365 74.1978 30.5188 74.4323 29.801 75.0171" stroke="black" stroke-width="0.8"/>
                <path d="M33.9581 74.0786C34.2428 74.6293 32.5568 75.3656 32.206 75.4662C31.6576 75.8316 31.0465 76.0925 30.4034 76.236" stroke="black" stroke-width="0.8"/>
                <path d="M34.3601 75.4804C34.3435 75.8647 33.6758 76.1823 33.3256 76.2827C32.8682 76.5597 32.381 76.7842 31.8733 76.952" stroke="black" stroke-width="0.8"/>
                <path d="M33.5761 76.7165L33.6097 76.8336C33.2923 77.0507 32.1238 77.3858 32.1414 77.887" stroke="black" stroke-width="0.8"/>
                <path d="M34.8776 77.7336C34.895 78.2343 33.7761 78.3023 34.0937 78.9698" stroke="black" stroke-width="0.8"/>
                <path d="M34.8793 77.7332C35.0431 77.8685 35.1434 78.0657 35.1562 78.2777C35.1691 78.4898 35.0934 78.6977 34.9472 78.8518" stroke="black" stroke-width="0.8"/>
                <path d="M48.4787 86.3498C48.5624 86.1997 48.4619 85.8489 48.662 85.6648C48.9962 85.9485 48.8464 86.75 48.8638 87.2507C48.9477 87.9852 48.765 88.67 48.966 89.3709" stroke="black" stroke-width="0.8"/>
                <path d="M49.8308 86.215C49.9884 86.7795 50.0286 87.3703 49.9489 87.951C49.8828 88.6024 50 89.4534 49.5501 90.0882" stroke="black" stroke-width="0.8"/>
                <path d="M50.5153 86.3982C51.1334 86.3477 50.7848 89.1022 50.418 89.587" stroke="black" stroke-width="0.8"/>
                <path d="M52.4534 87.8653C52.7045 88.299 52.0539 89.118 51.9206 89.5351C51.6703 89.9865 51.5881 91.0215 51.1207 91.1555" stroke="black" stroke-width="0.8"/>
                <path d="M53.2725 88.5156C53.5236 88.9493 53.1066 89.7013 52.8228 90.0355C52.6561 90.3362 52.3062 91.3218 51.8388 91.4558" stroke="black" stroke-width="0.8"/>
                <path d="M54.5749 88.6479L54.6921 88.6143C54.9426 89.0481 53.976 90.9691 53.5086 91.1031" stroke="black" stroke-width="0.8"/>
                <path d="M55.8438 88.663C56.3455 89.5305 54.8102 90.3503 54.7775 91.1183" stroke="black" stroke-width="0.8"/>
                <path d="M56.3956 89.2633C56.4962 89.6141 56.1292 90.0983 55.9625 90.3989C55.8063 90.7697 55.6106 91.1226 55.3789 91.4515" stroke="black" stroke-width="0.8"/>
                <path d="M57.2307 89.5296L57.3478 89.496C57.5989 89.9297 56.6645 91.0829 56.4978 91.3835C57.466 91.232 57.5314 89.6962 58.3496 89.4616C58.6007 89.8953 57.8664 90.8644 57.6501 91.4321C57.9335 91.0522 58.2579 90.7048 58.6176 90.3961C58.8177 90.212 59.3178 89.3101 59.7692 89.5602C60.187 89.6932 59.203 91.1135 59.1528 91.3808C59.4759 90.9872 59.8394 90.6287 60.2374 90.3112C60.6378 89.9435 61.0884 89.3087 61.6228 89.4083C61.5726 89.6755 61.4059 89.9761 61.3563 90.2432C61.1896 90.5439 60.8388 90.6445 60.8228 91.0286C62.0247 90.8101 62.2743 89.4743 63.2586 88.9392C63.6599 89.4566 63.0592 90.0078 63.0761 90.5086C63.3478 90.0939 63.6607 89.7076 64.01 89.3556C64.2103 89.172 64.7438 88.3866 65.128 88.4026C65.7795 88.4686 65.1457 89.7884 64.8625 90.1225C65.2133 90.0219 65.463 89.5707 65.7468 89.2365C65.9471 89.053 66.6473 87.9669 66.948 88.1335C67.3658 88.2666 66.9153 88.9015 66.8652 89.1687C66.732 89.5864 66.866 90.0537 66.3986 90.1877C66.8492 89.5528 67.5494 88.4668 68.3336 88.1158C68.5847 88.5495 68.5346 88.8167 68.3178 89.3846C68.2807 89.5855 68.2072 89.7779 68.1009 89.9524C68.0174 90.1031 67.7837 90.1701 67.7341 90.4372C67.8512 90.4036 67.9678 90.3702 68.0179 90.103L68.8689 89.1004C69.1701 88.6875 69.5364 88.3263 69.9535 88.0309C70.3882 88.6648 69.9216 89.6838 69.4375 90.2016C69.2534 90.0015 70.1713 89.2326 70.338 88.932C70.5383 88.7484 70.8381 88.03 71.2559 88.1631C71.8573 88.4963 70.8907 90.4173 70.5733 90.6344C70.6394 89.9831 71.6739 89.1807 72.0409 88.6965C72.277 88.2604 72.7301 87.9855 73.2261 87.9777C73.4436 88.2943 72.793 89.1133 72.7094 89.264C72.5427 89.5646 72.2093 90.1659 72.2763 90.3996C72.5601 90.0653 72.8098 89.6142 73.0937 89.2799C73.2604 88.9793 73.911 88.1603 74.2948 88.177C74.5017 88.5839 74.5889 89.0413 74.5463 89.4958C74.4801 90.1472 73.929 90.4313 74.2471 91.0987C74.2303 90.5978 74.6307 90.2302 74.8804 89.779C75.1301 89.3278 75.3636 88.3762 76.0146 88.4424C76.4492 89.0763 76.266 89.7612 76.2333 90.5292C76.8512 90.4781 76.9335 89.4431 77.4345 89.4262C77.6856 89.8599 77.6189 90.5114 77.9034 91.0616C78.1545 91.4953 77.9704 91.2953 78.3548 91.3118C78.7392 91.3283 78.7051 91.2113 78.9228 91.5285C79.324 92.0458 79.6086 92.5961 80.0098 93.1134C80.1934 93.3136 81.431 94.9815 80.5458 94.9825" stroke="black" stroke-width="0.8"/>
                <path d="M12.2649 33.2678C12.1644 32.917 12.5823 33.0506 12.6493 33.2843C12.5658 33.435 12.5992 33.5515 12.5162 33.702C12.4953 33.991 12.5353 34.2811 12.6336 34.5536C12.6253 35.1364 12.536 35.7153 12.3681 36.2735C12.3515 36.6579 12.2853 37.3087 11.9686 37.5262" stroke="black" stroke-width="0.8"/>
                <path d="M12.7316 32.2492L13.2676 34.1183C13.2803 34.5275 13.3537 34.9325 13.4854 35.3201C13.5524 35.5537 13.5359 35.938 13.3022 36.005" stroke="black" stroke-width="0.8"/>
                <path d="M12.7647 31.4806L13.6022 34.4013C13.7605 34.7327 13.8624 35.0881 13.9038 35.453L13.7867 35.4865" stroke="black" stroke-width="0.8"/>
                <path d="M13.0816 31.2636L13.1987 31.23C13.4242 31.7959 13.5926 32.383 13.7012 32.9825C13.9358 33.8005 14.4039 34.551 14.6719 35.4855" stroke="black" stroke-width="0.8"/>
                <path d="M13.8831 31.4128C14.1716 31.9096 14.4071 32.4353 14.5857 32.9812L15.3562 35.6683" stroke="black" stroke-width="0.8"/>
                <path d="M17.3622 38.254C18.0657 40.7075 19.6705 42.7758 20.3738 45.2287" stroke="black" stroke-width="0.8"/>
                <path d="M17.1781 38.0539C17.3986 39.0434 17.6782 40.0187 18.0156 40.9746C18.4671 42.1094 19.0364 43.2104 19.3713 44.3786L19.2708 44.0278" stroke="black" stroke-width="0.8"/>
                <path d="M17.3128 39.4056L18.5187 43.6111" stroke="black" stroke-width="0.8"/>
                <path d="M17.2641 40.5578C17.4316 41.1421 18.0673 42.4769 17.7003 42.9611" stroke="black" stroke-width="0.8"/>
                <path d="M13.8401 39.6429C14.175 40.8111 14.2093 41.8126 14.5443 42.9808C14.7119 43.5652 14.964 45.7685 15.9663 45.7339" stroke="black" stroke-width="0.8"/>
                <path d="M12.7544 38.9428L14.8313 46.1855" stroke="black" stroke-width="0.8"/>
                <path d="M12.7226 40.5957C12.7896 40.8293 12.7395 41.0966 12.8065 41.3302C12.9151 41.9297 13.0835 42.5168 13.309 43.0827C13.376 43.3164 14.0452 44.7683 13.6113 45.0188" stroke="black" stroke-width="0.8"/>
                <path d="M12.3565 41.9649C12.3806 42.4138 12.4654 42.8574 12.6085 43.2836C12.7425 43.7509 12.6093 44.1686 12.7433 44.6359" stroke="black" stroke-width="0.8"/>
                <path d="M20.6514 37.8165C21.0356 37.8325 21.9547 38.8338 22.1722 39.1504C22.6965 39.8924 23.0664 40.7321 23.26 41.6198" stroke="black" stroke-width="0.8"/>
                <path d="M21.8701 38.0989C22.2212 38.8835 22.9236 39.5667 23.3081 40.4678" stroke="black" stroke-width="0.8"/>
                <path d="M22.4212 37.8147C22.6885 37.8648 22.973 38.415 23.04 38.6486C23.4214 39.0006 23.7185 39.4339 23.9094 39.9164" stroke="black" stroke-width="0.8"/>
                <path d="M23.2227 37.9639C23.5225 38.5951 23.9427 39.1617 24.4598 39.6319" stroke="black" stroke-width="0.8"/>
                <path d="M23.4884 36.2445C23.9894 36.2276 24.4079 37.2451 24.5419 37.7124" stroke="black" stroke-width="0.8"/>
                <path d="M14.2843 12.966C14.3849 13.3168 14.4357 13.934 14.703 13.9841C14.8532 14.0678 15.0203 13.7664 15.2875 13.8165C15.4382 13.9 15.4551 14.4008 15.4885 14.5174" stroke="black" stroke-width="0.8"/>
                <path d="M14.6856 13.4833C14.2483 13.5881 13.8271 13.7515 13.4336 13.9691C12.9998 14.2202 12.9335 14.871 12.3155 14.9221" stroke="black" stroke-width="0.8"/>
                <path d="M14.853 14.0672C14.5187 13.7835 13.9678 14.0682 13.7341 14.1352C13.2667 14.2692 13.3003 14.3863 12.8999 14.7539C12.7332 15.0546 12.3824 15.1552 12.0991 15.4893C11.8988 15.6728 11.7323 15.974 11.4986 16.041" stroke="black" stroke-width="0.8"/>
                <path d="M15.0031 14.1508C14.0684 14.4189 13.1336 14.6869 12.4829 15.5059C11.8917 16.1585 11.5087 16.9726 11.383 17.8441" stroke="black" stroke-width="0.8"/>
                <path d="M12.7666 15.1712C12.0319 15.2552 11.4819 16.4249 11.3822 16.9592C11.2761 17.5149 11.2262 18.0799 11.2332 18.6457C11.2454 19.0836 11.2009 19.5213 11.1008 19.9479" stroke="black" stroke-width="0.8"/>
                <path d="M12.1661 15.7229C12.116 15.9901 12.033 16.1407 11.9828 16.4079C11.8436 16.8965 11.7326 17.3928 11.6503 17.8942C11.6002 18.1614 11.6672 18.395 11.6176 18.6621C11.5874 18.8976 11.5258 19.128 11.4343 19.3471C11.3842 19.6143 11.786 20.1315 11.4352 20.2321" stroke="black" stroke-width="0.8"/>
                <path d="M11.532 16.1576C11.3319 16.3418 11.2818 16.609 11.1151 16.9096C10.9028 17.2977 10.7671 17.723 10.7155 18.1623C10.4423 19.1733 10.3584 20.226 10.4681 21.2674" stroke="black" stroke-width="0.8"/>
                <path d="M10.4152 17.9949C10.6658 18.4287 10.5327 18.8465 10.433 19.3808C10.2831 20.1823 10.217 20.8336 10.0677 21.635" stroke="black" stroke-width="0.8"/>
                <path d="M11.5741 26.0065L12.2441 28.3429C12.4522 28.5005 12.5708 28.7493 12.5622 29.0102" stroke="black" stroke-width="0.8"/>
                <path d="M10.7056 25.6238L11.8445 29.5956" stroke="black" stroke-width="0.8"/>
                <path d="M11.1856 39.6456C11.2027 39.9563 11.1633 40.2675 11.0693 40.5642C10.8123 41.0923 10.6329 41.6547 10.5365 42.234C10.4029 43.1355 10.3256 44.0444 10.3052 44.9555L10.1887 44.989" stroke="black" stroke-width="0.8"/>
                <path d="M10.3004 39.6465C10.4009 39.9972 10.1171 40.3315 9.95042 40.6321C9.75977 41.1063 9.64747 41.6083 9.61788 42.1184C9.48476 42.5362 9.61874 43.0034 9.51904 43.5377C9.4962 43.8092 9.446 44.0778 9.3692 44.3392" stroke="black" stroke-width="0.8"/>
                <path d="M9.33375 41.5675C9.14991 42.1097 9.09883 42.688 9.18478 43.254C9.198 43.9546 9.27117 44.6527 9.40349 45.3408" stroke="black" stroke-width="0.8"/>
                <path d="M10.8212 42.7848C10.8882 43.0184 10.6881 43.2025 10.6379 43.4697C10.5878 43.7369 10.6052 44.2376 10.5551 44.5049C10.631 45.0019 10.6482 45.5062 10.6062 46.0073" stroke="black" stroke-width="0.8"/>
                <path d="M11.5076 42.0822C11.9258 43.1004 11.1758 44.453 11.6775 45.3205" stroke="black" stroke-width="0.8"/>
                <path d="M11.9904 43.3342C12.1914 44.0351 12.0081 44.7201 12.2091 45.421" stroke="black" stroke-width="0.8"/>
                <path d="M10.5405 46.658C10.7582 46.9751 10.5414 47.543 10.4918 47.8101C10.4881 48.3047 10.5446 48.7979 10.6601 49.2789" stroke="black" stroke-width="0.8"/>
                <path d="M11.6084 45.9722C11.859 46.406 11.409 47.0407 11.3924 47.425C11.3457 48.128 11.4197 48.8338 11.6111 49.5118" stroke="black" stroke-width="0.8"/>
                <path d="M12.1769 46.1887C12.4449 47.1233 12.0614 47.9918 12.3293 48.9263" stroke="black" stroke-width="0.8"/>
                <path d="M13.2791 46.5045C13.5632 47.0554 13.2633 47.7733 13.4642 48.4742" stroke="black" stroke-width="0.8"/>
                <path d="M13.9971 46.8043C14.4644 46.6702 14.0475 47.4222 14.265 47.7388" stroke="black" stroke-width="0.8"/>
                </g>
                </g>
                </svg>